<svg id="Calque_1" data-name="Calque 1" xmlns="http://www.w3.org/2000/svg" xmlns:xlink="http://www.w3.org/1999/xlink" viewBox="0 0 1519 770"><defs><clipPath id="clip-path"><path d="M1517.21,520c44.09-6.38,116.16-32,118.63-71.77,2.14-34.47-48.76-68.52-83-82.21-41.77-16.68-59.65-3.45-82.68-23.11-33.14-28.3-15-71.8-41.74-87.13-25.65-14.7-74.06,7.08-97.35,39.58-37.15,51.83-14.86,137.11,33.81,184C1421.39,533.91,1499.14,522.65,1517.21,520Z" style="fill:none"/></clipPath><clipPath id="clip-path-2"><path d="M367.82,156.31c60.58,2,163.26-15,176.11-67.65C555.08,43,495.07-14.83,452.44-41.4c-51.95-32.37-79.08-18.94-105.21-50.81-37.59-45.86-2.84-99.77-35-126.72-30.82-25.85-100.89-8.29-139.9,29.65-62.2,60.5-52.82,180.08,1.12,254.59C236.13,151.88,343,155.47,367.82,156.31Z" style="fill:none"/></clipPath><clipPath id="clip-path-3"><path d="M1032.29,709.7c-43.61-9.12-120.09-9.73-136,26.76-13.83,31.65,22.32,81.09,49.84,105.7,33.52,30,54.85,23.68,69.75,50.05,21.43,37.94-10.53,72.59,9.35,96.16,19,22.6,72,18.73,105-3.82,52.66-35.95,61-123.71,31.3-184.45C1127.06,729.52,1050.16,713.44,1032.29,709.7Z" style="fill:none"/></clipPath></defs><rect x="-2" y="-21" width="1543" height="806" style="fill:#6f1e51"/><path d="M274.46,711.52C187.4,783.82,216.62,906.6,171,915.61,124.94,924.71,97.45,798.89-9.56,776.2c-18-3.82-38.87-4.85-53.43-22-23.9-28.14-19.47-86.46,8.16-105.11,22-14.84,42.91,6,106.09,2.59,23.49-1.28,42.34-2.3,62.61-10.76,66-27.56,60.25-97.74,119.2-117.69,35.06-11.87,67.69,2.6,76.74,6.61,46.21,20.48,82.95,74,71.93,112.3C371,679.39,324.22,670.2,274.46,711.52Z" style="fill:#ff4757"/><path d="M56.2-52.47A18.5,18.5,0,0,1,64-54.17C222.6-54.76,271.44,3.1,271.44,3.1c37.73,44.7,37.09,98.23,36.4,155.84-.42,34.89-1.53,128.51-41.51,142.42C222.12,316.75,177.81,218.2,115,230.47c-46.75,9.12-50.83,69.22-91.33,70.89-40.91,1.7-98.06-57-84.31-111.77C-50,147.26-.85,122.76,35.76,123.81c31.14.89,45.16,20,62,10.86C117.19,124,124.92,83.73,109.85,59.3,92.89,31.82,59,43.76,44.06,15.87,31.68-7.2,39.23-44.5,56.2-52.47Z" style="fill:#ffc312"/><path d="M314.85,816.42c-38.18,42.25-84.63,56.68-106.32,58.19-22.61,1.57-26.62-13.61-63.84-15.94-15.6-1-39.84-2.5-46.61,9.25-10.45,18.13,33.62,45.35,26.63,74.8-6.36,26.79-52.61,45.71-90.21,39.39-50.59-8.5-87-63-85.59-114C-49.85,825-21.37,777.3,11.41,773c27.14-3.58,40.76,24.76,70.93,17.61,24.13-5.72,26.82-26.57,48.74-27.38,18-.67,21.73,13.27,49.24,24.66,9.91,4.1,49.19,20.36,72.3,4.52,23.53-16.12,9.06-51,36.63-70.84,13.15-9.48,32.58-13.19,39.76-5.92,9.2,9.3,12,41.47,9.74,56.59C336,790.4,326.34,803.71,314.85,816.42Z" style="fill:#fff"/><g style="clip-path:url(#clip-path)"><path d="M1303.44,338.5a8.19,8.19,0,1,1-1.16,11.43A8.13,8.13,0,0,1,1303.44,338.5Z" style="fill:#fff"/><path d="M1313.52,351a7.91,7.91,0,1,1,1.11-11,7.85,7.85,0,0,1-1.11,11m.35.44a8.47,8.47,0,1,0-11.81-1.37A8.41,8.41,0,0,0,1313.87,351.48Z" style="fill:#fff"/><path d="M1326.5,320a8.19,8.19,0,1,1-1.15,11.43A8.13,8.13,0,0,1,1326.5,320Z" style="fill:#fff"/><path d="M1336.58,332.51a7.91,7.91,0,1,1,1.11-11,7.86,7.86,0,0,1-1.11,11m.36.44a8.48,8.48,0,1,0-11.81-1.38A8.41,8.41,0,0,0,1336.94,333Z" style="fill:#fff"/><path d="M1349.56,301.42a8.19,8.19,0,1,1-1.15,11.44A8.15,8.15,0,0,1,1349.56,301.42Z" style="fill:#fff"/><path d="M1359.65,314a7.91,7.91,0,1,1,1.1-11,7.85,7.85,0,0,1-1.1,11m.35.44a8.47,8.47,0,1,0-11.81-1.38A8.41,8.41,0,0,0,1360,314.41Z" style="fill:#fff"/><path d="M1372.63,282.89a8.19,8.19,0,1,1-1.16,11.43A8.13,8.13,0,0,1,1372.63,282.89Z" style="fill:#fff"/><path d="M1382.71,295.44a7.91,7.91,0,1,1,1.11-11,7.86,7.86,0,0,1-1.11,11m.35.44a8.47,8.47,0,1,0-11.81-1.38A8.4,8.4,0,0,0,1383.06,295.88Z" style="fill:#fff"/><path d="M1395.69,264.35a8.19,8.19,0,1,1-1.15,11.43A8.14,8.14,0,0,1,1395.69,264.35Z" style="fill:#fff"/><path d="M1405.77,276.9a7.91,7.91,0,1,1,1.11-11,7.84,7.84,0,0,1-1.11,11m.36.44a8.48,8.48,0,1,0-11.81-1.38A8.41,8.41,0,0,0,1406.13,277.34Z" style="fill:#fff"/><path d="M1418.75,245.82a8.19,8.19,0,1,1-1.15,11.43A8.14,8.14,0,0,1,1418.75,245.82Z" style="fill:#fff"/><path d="M1428.84,258.36a7.91,7.91,0,1,1,1.11-11,7.85,7.85,0,0,1-1.11,11m.35.44a8.47,8.47,0,1,0-11.81-1.37A8.41,8.41,0,0,0,1429.19,258.8Z" style="fill:#fff"/><path d="M1303.43,384.72a7.56,7.56,0,1,1-1.07,10.55A7.5,7.5,0,0,1,1303.43,384.72Z" style="fill:#fff"/><path d="M1312.72,396.29a7.28,7.28,0,1,1,1-10.16,7.23,7.23,0,0,1-1,10.16m.36.44a7.85,7.85,0,1,0-10.94-1.28A7.79,7.79,0,0,0,1313.08,396.73Z" style="fill:#fff"/><path d="M1326.49,366.18a7.56,7.56,0,1,1-1.06,10.56A7.51,7.51,0,0,1,1326.49,366.18Z" style="fill:#fff"/><path d="M1335.79,377.75a7.28,7.28,0,1,1,1-10.16,7.23,7.23,0,0,1-1,10.16m.35.44a7.85,7.85,0,1,0-10.93-1.28A7.78,7.78,0,0,0,1336.14,378.19Z" style="fill:#fff"/><path d="M1349.55,347.65a7.56,7.56,0,1,1-1.06,10.55A7.5,7.5,0,0,1,1349.55,347.65Z" style="fill:#fff"/><path d="M1358.85,359.21a7.28,7.28,0,1,1,1-10.16,7.22,7.22,0,0,1-1,10.16m.36.44a7.85,7.85,0,1,0-10.94-1.27A7.78,7.78,0,0,0,1359.21,359.65Z" style="fill:#fff"/><path d="M1372.62,329.11a7.56,7.56,0,1,1-1.07,10.56A7.51,7.51,0,0,1,1372.62,329.11Z" style="fill:#fff"/><path d="M1381.92,340.68a7.28,7.28,0,1,1,1-10.16,7.24,7.24,0,0,1-1,10.16m.35.44a7.85,7.85,0,1,0-10.94-1.28A7.8,7.8,0,0,0,1382.27,341.12Z" style="fill:#fff"/><path d="M1395.68,310.57a7.57,7.57,0,1,1-1.06,10.56A7.52,7.52,0,0,1,1395.68,310.57Z" style="fill:#fff"/><path d="M1405,322.14a7.28,7.28,0,1,1,1-10.16,7.23,7.23,0,0,1-1,10.16m.35.44a7.85,7.85,0,1,0-10.93-1.27A7.78,7.78,0,0,0,1405.33,322.58Z" style="fill:#fff"/><path d="M1418.75,292a7.56,7.56,0,1,1-1.07,10.55A7.5,7.5,0,0,1,1418.75,292Z" style="fill:#fff"/><path d="M1428,303.61a7.28,7.28,0,1,1,1-10.16,7.24,7.24,0,0,1-1,10.16m.36.44a7.85,7.85,0,1,0-10.94-1.28A7.79,7.79,0,0,0,1428.4,304.05Z" style="fill:#fff"/><path d="M1441.81,273.5a7.56,7.56,0,1,1-1.06,10.56A7.51,7.51,0,0,1,1441.81,273.5Z" style="fill:#fff"/><path d="M1451.11,285.07a7.28,7.28,0,1,1,1-10.16,7.23,7.23,0,0,1-1,10.16m.35.44a7.85,7.85,0,1,0-10.93-1.28A7.78,7.78,0,0,0,1451.46,285.51Z" style="fill:#fff"/><path d="M1464.87,255a7.57,7.57,0,1,1-1.06,10.56A7.52,7.52,0,0,1,1464.87,255Z" style="fill:#fff"/><path d="M1474.17,266.53a7.28,7.28,0,1,1,1-10.16,7.22,7.22,0,0,1-1,10.16m.35.44a7.84,7.84,0,1,0-10.93-1.27A7.78,7.78,0,0,0,1474.52,267Z" style="fill:#fff"/><path d="M1303.42,430.94a6.94,6.94,0,1,1-1,9.68A6.88,6.88,0,0,1,1303.42,430.94Z" style="fill:#fff"/><path d="M1311.93,441.53a6.65,6.65,0,1,1,.93-9.28,6.61,6.61,0,0,1-.93,9.28m.35.44a7.22,7.22,0,1,0-10.06-1.18A7.16,7.16,0,0,0,1312.28,442Z" style="fill:#fff"/><path d="M1326.48,412.4a6.94,6.94,0,1,1-1,9.68A6.89,6.89,0,0,1,1326.48,412.4Z" style="fill:#fff"/><path d="M1335,423a6.65,6.65,0,1,1,.93-9.28A6.6,6.6,0,0,1,1335,423m.36.44a7.22,7.22,0,1,0-10.06-1.17A7.16,7.16,0,0,0,1335.35,423.43Z" style="fill:#fff"/><path d="M1349.55,393.87a6.93,6.93,0,1,1-1,9.68A6.88,6.88,0,0,1,1349.55,393.87Z" style="fill:#fff"/><path d="M1358.06,404.46a6.65,6.65,0,1,1,.93-9.29,6.61,6.61,0,0,1-.93,9.29m.35.44a7.22,7.22,0,1,0-10.06-1.18A7.16,7.16,0,0,0,1358.41,404.9Z" style="fill:#fff"/><path d="M1372.61,375.33a6.94,6.94,0,1,1-1,9.68A6.88,6.88,0,0,1,1372.61,375.33Z" style="fill:#fff"/><path d="M1381.12,385.92a6.65,6.65,0,1,1,.93-9.28,6.61,6.61,0,0,1-.93,9.28m.35.44a7.22,7.22,0,1,0-10.06-1.17A7.16,7.16,0,0,0,1381.47,386.36Z" style="fill:#fff"/><path d="M1395.67,356.79a6.94,6.94,0,1,1-1,9.68A6.9,6.9,0,0,1,1395.67,356.79Z" style="fill:#fff"/><path d="M1404.18,367.38a6.65,6.65,0,1,1,.94-9.28,6.6,6.6,0,0,1-.94,9.28m.36.44a7.22,7.22,0,1,0-10.06-1.17A7.16,7.16,0,0,0,1404.54,367.82Z" style="fill:#fff"/><path d="M1418.74,338.26a6.94,6.94,0,1,1-1,9.68A6.88,6.88,0,0,1,1418.74,338.26Z" style="fill:#fff"/><path d="M1427.25,348.85a6.65,6.65,0,1,1,.93-9.28,6.61,6.61,0,0,1-.93,9.28m.35.44a7.22,7.22,0,1,0-10.06-1.18A7.16,7.16,0,0,0,1427.6,349.29Z" style="fill:#fff"/><path d="M1441.8,319.72a6.94,6.94,0,1,1-1,9.68A6.88,6.88,0,0,1,1441.8,319.72Z" style="fill:#fff"/><path d="M1450.31,330.31a6.65,6.65,0,1,1,.93-9.28,6.6,6.6,0,0,1-.93,9.28m.36.44a7.22,7.22,0,1,0-10.06-1.17A7.16,7.16,0,0,0,1450.67,330.75Z" style="fill:#fff"/><path d="M1464.86,301.19a6.94,6.94,0,1,1-1,9.68A6.89,6.89,0,0,1,1464.86,301.19Z" style="fill:#fff"/><path d="M1473.38,311.78a6.65,6.65,0,1,1,.93-9.29,6.61,6.61,0,0,1-.93,9.29m.35.44a7.22,7.22,0,1,0-10.06-1.18A7.17,7.17,0,0,0,1473.73,312.22Z" style="fill:#fff"/><path d="M1487.93,282.65a6.94,6.94,0,1,1-1,9.68A6.88,6.88,0,0,1,1487.93,282.65Z" style="fill:#fff"/><path d="M1496.44,293.24a6.65,6.65,0,1,1,.93-9.28,6.61,6.61,0,0,1-.93,9.28m.35.44a7.22,7.22,0,1,0-10.06-1.17A7.16,7.16,0,0,0,1496.79,293.68Z" style="fill:#fff"/><path d="M1511,264.11a6.94,6.94,0,1,1-1,9.68A6.9,6.9,0,0,1,1511,264.11Z" style="fill:#fff"/><path d="M1519.5,274.7a6.65,6.65,0,1,1,.93-9.28,6.6,6.6,0,0,1-.93,9.28m.36.44A7.22,7.22,0,1,0,1509.8,274,7.16,7.16,0,0,0,1519.86,275.14Z" style="fill:#fff"/><path d="M1303.41,477.16a6.31,6.31,0,1,1-.89,8.8A6.27,6.27,0,0,1,1303.41,477.16Z" style="fill:#fff"/><path d="M1311.13,486.77a6,6,0,1,1,.85-8.41,6,6,0,0,1-.85,8.41m.36.44a6.59,6.59,0,1,0-9.19-1.07A6.54,6.54,0,0,0,1311.49,487.21Z" style="fill:#fff"/><path d="M1326.47,458.62a6.31,6.31,0,1,1-.88,8.81A6.27,6.27,0,0,1,1326.47,458.62Z" style="fill:#fff"/><path d="M1334.2,468.24a6,6,0,1,1,.84-8.41,6,6,0,0,1-.84,8.41m.35.44a6.59,6.59,0,1,0-9.18-1.08A6.54,6.54,0,0,0,1334.55,468.68Z" style="fill:#fff"/><path d="M1349.54,440.09a6.31,6.31,0,1,1-.89,8.8A6.25,6.25,0,0,1,1349.54,440.09Z" style="fill:#fff"/><path d="M1357.26,449.7a6,6,0,1,1,.85-8.41,6,6,0,0,1-.85,8.41m.36.44a6.59,6.59,0,1,0-9.19-1.07A6.54,6.54,0,0,0,1357.62,450.14Z" style="fill:#fff"/><path d="M1372.6,421.55a6.31,6.31,0,1,1-.89,8.8A6.27,6.27,0,0,1,1372.6,421.55Z" style="fill:#fff"/><path d="M1380.33,431.16a6,6,0,1,1,.84-8.4,6,6,0,0,1-.84,8.4m.35.44a6.59,6.59,0,1,0-9.19-1.07A6.54,6.54,0,0,0,1380.68,431.6Z" style="fill:#fff"/><path d="M1395.67,403a6.31,6.31,0,1,1-.89,8.81A6.26,6.26,0,0,1,1395.67,403Z" style="fill:#fff"/><path d="M1403.39,412.63a6,6,0,1,1,.84-8.41,6,6,0,0,1-.84,8.41m.35.44a6.59,6.59,0,1,0-9.18-1.07A6.53,6.53,0,0,0,1403.74,413.07Z" style="fill:#fff"/><path d="M1418.73,384.48a6.31,6.31,0,1,1-.89,8.8A6.26,6.26,0,0,1,1418.73,384.48Z" style="fill:#fff"/><path d="M1426.45,394.09a6,6,0,1,1,.85-8.41,6,6,0,0,1-.85,8.41m.36.44a6.59,6.59,0,1,0-9.19-1.07A6.54,6.54,0,0,0,1426.81,394.53Z" style="fill:#fff"/><path d="M1441.79,365.94a6.31,6.31,0,1,1-.88,8.81A6.27,6.27,0,0,1,1441.79,365.94Z" style="fill:#fff"/><path d="M1449.52,375.55a6,6,0,1,1,.84-8.4,6,6,0,0,1-.84,8.4m.35.45a6.59,6.59,0,1,0-9.18-1.08A6.55,6.55,0,0,0,1449.87,376Z" style="fill:#fff"/><path d="M1464.86,347.41a6.31,6.31,0,1,1-.89,8.8A6.24,6.24,0,0,1,1464.86,347.41Z" style="fill:#fff"/><path d="M1472.58,357a6,6,0,1,1,.84-8.41,6,6,0,0,1-.84,8.41m.35.44a6.59,6.59,0,1,0-9.18-1.07A6.53,6.53,0,0,0,1472.93,357.46Z" style="fill:#fff"/><path d="M1487.92,328.87a6.31,6.31,0,1,1-.89,8.8A6.27,6.27,0,0,1,1487.92,328.87Z" style="fill:#fff"/><path d="M1495.64,338.48a6,6,0,1,1,.85-8.4,6,6,0,0,1-.85,8.4m.36.44a6.59,6.59,0,1,0-9.19-1.07A6.54,6.54,0,0,0,1496,338.92Z" style="fill:#fff"/><path d="M1511,310.33a6.31,6.31,0,1,1-.88,8.81A6.27,6.27,0,0,1,1511,310.33Z" style="fill:#fff"/><path d="M1518.71,320a6,6,0,1,1,.84-8.41,6,6,0,0,1-.84,8.41m.35.44a6.59,6.59,0,1,0-9.18-1.07A6.53,6.53,0,0,0,1519.06,320.39Z" style="fill:#fff"/><path d="M1326.46,504.84a5.68,5.68,0,1,1-.79,7.93A5.65,5.65,0,0,1,1326.46,504.84Z" style="fill:#fff"/><path d="M1333.4,513.48a5.4,5.4,0,1,1,.76-7.53,5.35,5.35,0,0,1-.76,7.53m.36.44a6,6,0,1,0-8.31-1A5.92,5.92,0,0,0,1333.76,513.92Z" style="fill:#fff"/><path d="M1349.53,486.31a5.68,5.68,0,1,1-.8,7.93A5.64,5.64,0,0,1,1349.53,486.31Z" style="fill:#fff"/><path d="M1356.47,494.94a5.4,5.4,0,1,1,.75-7.53,5.36,5.36,0,0,1-.75,7.53m.35.44a6,6,0,1,0-8.31-1A5.91,5.91,0,0,0,1356.82,495.38Z" style="fill:#fff"/><path d="M1372.59,467.77a5.68,5.68,0,1,1-.8,7.93A5.65,5.65,0,0,1,1372.59,467.77Z" style="fill:#fff"/><path d="M1379.53,476.41a5.4,5.4,0,1,1,.76-7.53,5.37,5.37,0,0,1-.76,7.53m.35.44a6,6,0,1,0-8.31-1A5.92,5.92,0,0,0,1379.88,476.85Z" style="fill:#fff"/><path d="M1395.66,449.24a5.68,5.68,0,1,1-.8,7.92A5.64,5.64,0,0,1,1395.66,449.24Z" style="fill:#fff"/><path d="M1402.59,457.87a5.4,5.4,0,1,1,.76-7.53,5.35,5.35,0,0,1-.76,7.53m.36.44a6,6,0,1,0-8.31-1A5.91,5.91,0,0,0,1403,458.31Z" style="fill:#fff"/><path d="M1418.72,430.7a5.68,5.68,0,1,1-.8,7.93A5.64,5.64,0,0,1,1418.72,430.7Z" style="fill:#fff"/><path d="M1425.66,439.33a5.4,5.4,0,1,1,.75-7.53,5.36,5.36,0,0,1-.75,7.53m.35.44a6,6,0,1,0-8.31-1A5.9,5.9,0,0,0,1426,439.77Z" style="fill:#fff"/><path d="M1441.78,412.16a5.68,5.68,0,1,1-.79,7.93A5.65,5.65,0,0,1,1441.78,412.16Z" style="fill:#fff"/><path d="M1448.72,420.8a5.4,5.4,0,1,1,.76-7.53,5.35,5.35,0,0,1-.76,7.53m.36.44a6,6,0,1,0-8.31-1A5.93,5.93,0,0,0,1449.08,421.24Z" style="fill:#fff"/><path d="M1464.85,393.63a5.68,5.68,0,1,1-.8,7.93A5.64,5.64,0,0,1,1464.85,393.63Z" style="fill:#fff"/><path d="M1471.79,402.26a5.4,5.4,0,1,1,.75-7.53,5.36,5.36,0,0,1-.75,7.53m.35.44a6,6,0,1,0-8.31-1A5.91,5.91,0,0,0,1472.14,402.7Z" style="fill:#fff"/><path d="M1487.91,375.09a5.68,5.68,0,1,1-.8,7.93A5.64,5.64,0,0,1,1487.91,375.09Z" style="fill:#fff"/><path d="M1494.85,383.73a5.4,5.4,0,1,1,.75-7.54,5.37,5.37,0,0,1-.75,7.54m.35.44a6,6,0,1,0-8.31-1A5.91,5.91,0,0,0,1495.2,384.17Z" style="fill:#fff"/><path d="M1511,356.56a5.68,5.68,0,1,1-.79,7.92A5.65,5.65,0,0,1,1511,356.56Z" style="fill:#fff"/><path d="M1517.91,365.19a5.4,5.4,0,1,1,.76-7.53,5.35,5.35,0,0,1-.76,7.53m.36.44a6,6,0,1,0-8.31-1A5.92,5.92,0,0,0,1518.27,365.63Z" style="fill:#fff"/><path d="M1372.58,514a5.05,5.05,0,1,1-.71,7A5,5,0,0,1,1372.58,514Z" style="fill:#fff"/><path d="M1378.74,521.65a4.77,4.77,0,1,1,.66-6.66,4.74,4.74,0,0,1-.66,6.66m.35.44a5.34,5.34,0,1,0-7.44-.87A5.29,5.29,0,0,0,1379.09,522.09Z" style="fill:#fff"/><path d="M1395.65,495.46a5.05,5.05,0,1,1-.71,7.05A5,5,0,0,1,1395.65,495.46Z" style="fill:#fff"/><path d="M1401.8,503.11a4.77,4.77,0,1,1,.67-6.65,4.73,4.73,0,0,1-.67,6.65m.35.44a5.33,5.33,0,1,0-7.43-.86A5.29,5.29,0,0,0,1402.15,503.55Z" style="fill:#fff"/><path d="M1418.71,476.92A5.05,5.05,0,1,1,1418,484,5,5,0,0,1,1418.71,476.92Z" style="fill:#fff"/><path d="M1424.86,484.58a4.77,4.77,0,1,1,.67-6.66,4.73,4.73,0,0,1-.67,6.66m.36.44a5.34,5.34,0,1,0-7.44-.87A5.29,5.29,0,0,0,1425.22,485Z" style="fill:#fff"/><path d="M1441.78,458.38a5.05,5.05,0,1,1-.71,7.06A5,5,0,0,1,1441.78,458.38Z" style="fill:#fff"/><path d="M1447.93,466a4.77,4.77,0,1,1,.66-6.65,4.73,4.73,0,0,1-.66,6.65m.35.44a5.34,5.34,0,1,0-7.43-.87A5.29,5.29,0,0,0,1448.28,466.48Z" style="fill:#fff"/><path d="M1464.84,439.85a5.05,5.05,0,1,1-.71,7A5,5,0,0,1,1464.84,439.85Z" style="fill:#fff"/><path d="M1471,447.5a4.77,4.77,0,1,1,.67-6.65,4.73,4.73,0,0,1-.67,6.65m.36.44a5.33,5.33,0,1,0-7.44-.86A5.29,5.29,0,0,0,1471.35,447.94Z" style="fill:#fff"/><path d="M1487.9,421.31a5.05,5.05,0,1,1-.71,7.05A5,5,0,0,1,1487.9,421.31Z" style="fill:#fff"/><path d="M1494.05,429a4.77,4.77,0,1,1,.67-6.66,4.73,4.73,0,0,1-.67,6.66m.36.44a5.34,5.34,0,1,0-7.44-.87A5.29,5.29,0,0,0,1494.41,429.41Z" style="fill:#fff"/><path d="M1511,402.78a5.05,5.05,0,1,1-.71,7.05A5,5,0,0,1,1511,402.78Z" style="fill:#fff"/><path d="M1517.12,410.43a4.77,4.77,0,1,1,.67-6.65,4.73,4.73,0,0,1-.67,6.65m.35.44A5.33,5.33,0,1,0,1510,410,5.3,5.3,0,0,0,1517.47,410.87Z" style="fill:#fff"/><path d="M1418.7,523.14a4.43,4.43,0,1,1-.62,6.18A4.41,4.41,0,0,1,1418.7,523.14Z" style="fill:#fff"/><path d="M1424.07,529.82a4.14,4.14,0,1,1,.58-5.78,4.11,4.11,0,0,1-.58,5.78m.35.44a4.71,4.71,0,1,0-6.56-.77A4.67,4.67,0,0,0,1424.42,530.26Z" style="fill:#fff"/><path d="M1441.77,504.61a4.42,4.42,0,1,1-.62,6.17A4.38,4.38,0,0,1,1441.77,504.61Z" style="fill:#fff"/><path d="M1447.13,511.28a4.14,4.14,0,1,1,.58-5.78,4.1,4.1,0,0,1-.58,5.78m.36.44a4.71,4.71,0,1,0-6.56-.76A4.67,4.67,0,0,0,1447.49,511.72Z" style="fill:#fff"/><path d="M1464.83,486.07a4.43,4.43,0,1,1-.62,6.18A4.39,4.39,0,0,1,1464.83,486.07Z" style="fill:#fff"/><path d="M1470.2,492.75a4.14,4.14,0,1,1,.57-5.78,4.12,4.12,0,0,1-.57,5.78m.35.44a4.71,4.71,0,1,0-6.56-.77A4.66,4.66,0,0,0,1470.55,493.19Z" style="fill:#fff"/><path d="M1487.89,467.53a4.43,4.43,0,1,1-.62,6.18A4.4,4.4,0,0,1,1487.89,467.53Z" style="fill:#fff"/><path d="M1493.26,474.21a4.14,4.14,0,1,1,.58-5.78,4.11,4.11,0,0,1-.58,5.78m.35.44a4.71,4.71,0,1,0-6.56-.76A4.66,4.66,0,0,0,1493.61,474.65Z" style="fill:#fff"/><path d="M1511,449a4.43,4.43,0,1,1-.62,6.17A4.38,4.38,0,0,1,1511,449Z" style="fill:#fff"/><path d="M1516.32,455.67a4.14,4.14,0,1,1,.58-5.77,4.1,4.1,0,0,1-.58,5.77m.36.45a4.71,4.71,0,1,0-6.56-.77A4.68,4.68,0,0,0,1516.68,456.12Z" style="fill:#fff"/><path d="M1487.89,513.75a3.8,3.8,0,1,1-.54,5.3A3.75,3.75,0,0,1,1487.89,513.75Z" style="fill:#fff"/><path d="M1492.47,519.45a3.51,3.51,0,1,1,.48-4.9,3.49,3.49,0,0,1-.48,4.9m.35.44a4.08,4.08,0,1,0-5.69-.66A4,4,0,0,0,1492.82,519.89Z" style="fill:#fff"/><path d="M1511,495.22a3.8,3.8,0,1,1-.53,5.3A3.77,3.77,0,0,1,1511,495.22Z" style="fill:#fff"/><path d="M1515.53,500.92a3.51,3.51,0,1,1,.49-4.9,3.49,3.49,0,0,1-.49,4.9m.35.44a4.08,4.08,0,1,0-5.68-.67A4.05,4.05,0,0,0,1515.88,501.36Z" style="fill:#fff"/><path d="M1303.24,316a8.19,8.19,0,1,1-1.15,11.43A8.14,8.14,0,0,1,1303.24,316Z" style="fill:#fff"/><path d="M1313.32,328.56a7.91,7.91,0,1,1,1.11-11,7.84,7.84,0,0,1-1.11,11m.36.44a8.48,8.48,0,1,0-11.81-1.38A8.41,8.41,0,0,0,1313.68,329Z" style="fill:#fff"/><path d="M1326.3,297.48a8.19,8.19,0,1,1-1.15,11.43A8.12,8.12,0,0,1,1326.3,297.48Z" style="fill:#fff"/><path d="M1336.39,310a7.91,7.91,0,1,1,1.11-11,7.85,7.85,0,0,1-1.11,11m.35.44a8.47,8.47,0,1,0-11.81-1.38A8.41,8.41,0,0,0,1336.74,310.46Z" style="fill:#fff"/><path d="M1349.37,278.94a8.19,8.19,0,1,1-1.16,11.43A8.13,8.13,0,0,1,1349.37,278.94Z" style="fill:#fff"/><path d="M1359.45,291.49a7.91,7.91,0,1,1,1.11-11,7.87,7.87,0,0,1-1.11,11m.35.44a8.47,8.47,0,1,0-11.81-1.38A8.4,8.4,0,0,0,1359.8,291.93Z" style="fill:#fff"/><path d="M1372.43,260.4a8.19,8.19,0,1,1-1.15,11.44A8.14,8.14,0,0,1,1372.43,260.4Z" style="fill:#fff"/><path d="M1382.51,273a7.91,7.91,0,1,1,1.11-11,7.84,7.84,0,0,1-1.11,11m.36.44a8.48,8.48,0,1,0-11.81-1.38A8.41,8.41,0,0,0,1382.87,273.39Z" style="fill:#fff"/><path d="M1395.49,241.87a8.19,8.19,0,1,1-1.15,11.43A8.14,8.14,0,0,1,1395.49,241.87Z" style="fill:#fff"/><path d="M1405.58,254.41a7.91,7.91,0,1,1,1.11-11,7.85,7.85,0,0,1-1.11,11m.35.44a8.47,8.47,0,1,0-11.81-1.37A8.41,8.41,0,0,0,1405.93,254.85Z" style="fill:#fff"/><path d="M1303.23,362.23a7.57,7.57,0,1,1-1.06,10.56A7.52,7.52,0,0,1,1303.23,362.23Z" style="fill:#fff"/><path d="M1312.53,373.8a7.28,7.28,0,1,1,1-10.16,7.23,7.23,0,0,1-1,10.16m.35.44A7.85,7.85,0,1,0,1302,373,7.78,7.78,0,0,0,1312.88,374.24Z" style="fill:#fff"/><path d="M1326.29,343.7a7.57,7.57,0,1,1-1.06,10.55A7.51,7.51,0,0,1,1326.29,343.7Z" style="fill:#fff"/><path d="M1335.59,355.27a7.28,7.28,0,1,1,1-10.16,7.24,7.24,0,0,1-1,10.16m.36.44a7.85,7.85,0,1,0-10.94-1.28A7.79,7.79,0,0,0,1336,355.71Z" style="fill:#fff"/><path d="M1349.36,325.16a7.56,7.56,0,1,1-1.07,10.56A7.51,7.51,0,0,1,1349.36,325.16Z" style="fill:#fff"/><path d="M1358.66,336.73a7.28,7.28,0,1,1,1-10.16,7.24,7.24,0,0,1-1,10.16m.35.44a7.85,7.85,0,1,0-10.94-1.28A7.79,7.79,0,0,0,1359,337.17Z" style="fill:#fff"/><path d="M1372.42,306.62a7.57,7.57,0,1,1-1.06,10.56A7.52,7.52,0,0,1,1372.42,306.62Z" style="fill:#fff"/><path d="M1381.72,318.19a7.28,7.28,0,1,1,1-10.16,7.22,7.22,0,0,1-1,10.16m.35.44a7.85,7.85,0,1,0-10.93-1.27A7.78,7.78,0,0,0,1382.07,318.63Z" style="fill:#fff"/><path d="M1395.49,288.09a7.56,7.56,0,1,1-1.07,10.56A7.5,7.5,0,0,1,1395.49,288.09Z" style="fill:#fff"/><path d="M1404.78,299.66a7.28,7.28,0,1,1,1-10.16,7.23,7.23,0,0,1-1,10.16m.36.44a7.85,7.85,0,1,0-10.94-1.28A7.79,7.79,0,0,0,1405.14,300.1Z" style="fill:#fff"/><path d="M1418.55,269.55a7.56,7.56,0,1,1-1.06,10.56A7.51,7.51,0,0,1,1418.55,269.55Z" style="fill:#fff"/><path d="M1427.85,281.12a7.28,7.28,0,1,1,1-10.16,7.23,7.23,0,0,1-1,10.16m.35.44a7.85,7.85,0,1,0-10.93-1.27A7.78,7.78,0,0,0,1428.2,281.56Z" style="fill:#fff"/><path d="M1441.61,251a7.57,7.57,0,1,1-1.06,10.55A7.51,7.51,0,0,1,1441.61,251Z" style="fill:#fff"/><path d="M1450.91,262.58a7.28,7.28,0,1,1,1-10.15,7.23,7.23,0,0,1-1,10.15m.35.45a7.84,7.84,0,1,0-10.93-1.28A7.79,7.79,0,0,0,1451.26,263Z" style="fill:#fff"/><path d="M1303.22,408.45a6.94,6.94,0,1,1-1,9.68A6.89,6.89,0,0,1,1303.22,408.45Z" style="fill:#fff"/><path d="M1311.73,419a6.65,6.65,0,1,1,.94-9.28,6.59,6.59,0,0,1-.94,9.28m.36.44a7.22,7.22,0,1,0-10.06-1.17A7.15,7.15,0,0,0,1312.09,419.48Z" style="fill:#fff"/><path d="M1326.29,389.92a6.93,6.93,0,1,1-1,9.68A6.88,6.88,0,0,1,1326.29,389.92Z" style="fill:#fff"/><path d="M1334.8,400.51a6.65,6.65,0,1,1,.93-9.28,6.61,6.61,0,0,1-.93,9.28m.35.44a7.22,7.22,0,1,0-10.06-1.18A7.16,7.16,0,0,0,1335.15,401Z" style="fill:#fff"/><path d="M1349.35,371.38a6.94,6.94,0,1,1-1,9.68A6.88,6.88,0,0,1,1349.35,371.38Z" style="fill:#fff"/><path d="M1357.86,382a6.65,6.65,0,1,1,.93-9.28,6.61,6.61,0,0,1-.93,9.28m.35.44a7.22,7.22,0,1,0-10.06-1.17A7.16,7.16,0,0,0,1358.21,382.41Z" style="fill:#fff"/><path d="M1372.41,352.85a6.94,6.94,0,1,1-1,9.68A6.89,6.89,0,0,1,1372.41,352.85Z" style="fill:#fff"/><path d="M1380.92,363.44a6.65,6.65,0,1,1,.94-9.29,6.6,6.6,0,0,1-.94,9.29m.36.44a7.22,7.22,0,1,0-10.06-1.18A7.17,7.17,0,0,0,1381.28,363.88Z" style="fill:#fff"/><path d="M1395.48,334.31a6.94,6.94,0,1,1-1,9.68A6.88,6.88,0,0,1,1395.48,334.31Z" style="fill:#fff"/><path d="M1404,344.9a6.65,6.65,0,1,1,.93-9.28,6.61,6.61,0,0,1-.93,9.28m.35.44a7.22,7.22,0,1,0-10.06-1.17A7.16,7.16,0,0,0,1404.34,345.34Z" style="fill:#fff"/><path d="M1418.54,315.77a6.94,6.94,0,1,1-1,9.68A6.89,6.89,0,0,1,1418.54,315.77Z" style="fill:#fff"/><path d="M1427.05,326.36a6.65,6.65,0,1,1,.93-9.28,6.59,6.59,0,0,1-.93,9.28m.36.44a7.22,7.22,0,1,0-10.06-1.17A7.16,7.16,0,0,0,1427.41,326.8Z" style="fill:#fff"/><path d="M1441.6,297.24a6.94,6.94,0,1,1-1,9.68A6.89,6.89,0,0,1,1441.6,297.24Z" style="fill:#fff"/><path d="M1450.12,307.83a6.65,6.65,0,1,1,.93-9.29,6.61,6.61,0,0,1-.93,9.29m.35.44a7.22,7.22,0,1,0-10.06-1.18A7.17,7.17,0,0,0,1450.47,308.27Z" style="fill:#fff"/><path d="M1464.67,278.7a6.94,6.94,0,1,1-1,9.68A6.88,6.88,0,0,1,1464.67,278.7Z" style="fill:#fff"/><path d="M1473.18,289.29a6.65,6.65,0,1,1,.93-9.28,6.61,6.61,0,0,1-.93,9.28m.35.44a7.22,7.22,0,1,0-10.06-1.17A7.16,7.16,0,0,0,1473.53,289.73Z" style="fill:#fff"/><path d="M1487.73,260.17a6.94,6.94,0,1,1-1,9.68A6.88,6.88,0,0,1,1487.73,260.17Z" style="fill:#fff"/><path d="M1496.24,270.76a6.65,6.65,0,1,1,.93-9.29,6.6,6.6,0,0,1-.93,9.29m.36.44a7.22,7.22,0,1,0-10.06-1.18A7.17,7.17,0,0,0,1496.6,271.2Z" style="fill:#fff"/><path d="M1510.8,241.63a6.93,6.93,0,1,1-1,9.68A6.88,6.88,0,0,1,1510.8,241.63Z" style="fill:#fff"/><path d="M1519.31,252.22a6.65,6.65,0,1,1,.93-9.28,6.61,6.61,0,0,1-.93,9.28m.35.44a7.22,7.22,0,1,0-10.06-1.17A7.16,7.16,0,0,0,1519.66,252.66Z" style="fill:#fff"/><path d="M1303.21,454.67a6.31,6.31,0,1,1-.88,8.81A6.27,6.27,0,0,1,1303.21,454.67Z" style="fill:#fff"/><path d="M1310.94,464.29a6,6,0,1,1,.84-8.41,6,6,0,0,1-.84,8.41m.35.44a6.59,6.59,0,1,0-9.18-1.07A6.54,6.54,0,0,0,1311.29,464.73Z" style="fill:#fff"/><path d="M1326.28,436.14a6.31,6.31,0,1,1-.89,8.8A6.27,6.27,0,0,1,1326.28,436.14Z" style="fill:#fff"/><path d="M1334,445.75a6,6,0,1,1,.84-8.41,6,6,0,0,1-.84,8.41m.36.44a6.59,6.59,0,1,0-9.19-1.07A6.54,6.54,0,0,0,1334.36,446.19Z" style="fill:#fff"/><path d="M1349.34,417.6a6.31,6.31,0,1,1-.89,8.81A6.27,6.27,0,0,1,1349.34,417.6Z" style="fill:#fff"/><path d="M1357.07,427.21a6,6,0,1,1,.84-8.4,6,6,0,0,1-.84,8.4m.35.44a6.59,6.59,0,1,0-9.19-1.07A6.54,6.54,0,0,0,1357.42,427.65Z" style="fill:#fff"/><path d="M1372.4,399.07a6.31,6.31,0,1,1-.88,8.8A6.25,6.25,0,0,1,1372.4,399.07Z" style="fill:#fff"/><path d="M1380.13,408.68a6,6,0,1,1,.84-8.41,6,6,0,0,1-.84,8.41m.35.44a6.59,6.59,0,1,0-9.18-1.07A6.53,6.53,0,0,0,1380.48,409.12Z" style="fill:#fff"/><path d="M1395.47,380.53a6.31,6.31,0,1,1-.89,8.8A6.27,6.27,0,0,1,1395.47,380.53Z" style="fill:#fff"/><path d="M1403.19,390.14a6,6,0,1,1,.85-8.4,6,6,0,0,1-.85,8.4m.36.44a6.59,6.59,0,1,0-9.19-1.07A6.54,6.54,0,0,0,1403.55,390.58Z" style="fill:#fff"/><path d="M1418.53,362a6.31,6.31,0,1,1-.88,8.81A6.27,6.27,0,0,1,1418.53,362Z" style="fill:#fff"/><path d="M1426.26,371.61a6,6,0,1,1,.84-8.41,6,6,0,0,1-.84,8.41m.35.44a6.59,6.59,0,1,0-9.18-1.07A6.54,6.54,0,0,0,1426.61,372.05Z" style="fill:#fff"/><path d="M1441.6,343.46a6.31,6.31,0,1,1-.89,8.8A6.25,6.25,0,0,1,1441.6,343.46Z" style="fill:#fff"/><path d="M1449.32,353.07a6,6,0,1,1,.84-8.41,6,6,0,0,1-.84,8.41m.35.44a6.59,6.59,0,1,0-9.18-1.07A6.53,6.53,0,0,0,1449.67,353.51Z" style="fill:#fff"/><path d="M1464.66,324.92a6.31,6.31,0,1,1-.89,8.81A6.27,6.27,0,0,1,1464.66,324.92Z" style="fill:#fff"/><path d="M1472.38,334.53a6,6,0,1,1,.85-8.4,6,6,0,0,1-.85,8.4m.36.44a6.59,6.59,0,1,0-9.19-1.07A6.54,6.54,0,0,0,1472.74,335Z" style="fill:#fff"/><path d="M1487.72,306.39a6.31,6.31,0,1,1-.88,8.8A6.26,6.26,0,0,1,1487.72,306.39Z" style="fill:#fff"/><path d="M1495.45,316a6,6,0,1,1,.84-8.41,6,6,0,0,1-.84,8.41m.35.44a6.59,6.59,0,1,0-9.18-1.07A6.54,6.54,0,0,0,1495.8,316.44Z" style="fill:#fff"/><path d="M1510.79,287.85a6.31,6.31,0,1,1-.89,8.8A6.27,6.27,0,0,1,1510.79,287.85Z" style="fill:#fff"/><path d="M1518.51,297.46a6,6,0,1,1,.85-8.4,6,6,0,0,1-.85,8.4m.36.44a6.59,6.59,0,1,0-9.19-1.07A6.53,6.53,0,0,0,1518.87,297.9Z" style="fill:#fff"/><path d="M1303.21,500.9a5.68,5.68,0,1,1-.8,7.92A5.64,5.64,0,0,1,1303.21,500.9Z" style="fill:#fff"/><path d="M1310.14,509.53a5.4,5.4,0,1,1,.76-7.53,5.35,5.35,0,0,1-.76,7.53m.36.44a6,6,0,1,0-8.31-1A5.92,5.92,0,0,0,1310.5,510Z" style="fill:#fff"/><path d="M1326.27,482.36a5.68,5.68,0,1,1-.8,7.93A5.64,5.64,0,0,1,1326.27,482.36Z" style="fill:#fff"/><path d="M1333.21,491a5.4,5.4,0,1,1,.75-7.53,5.35,5.35,0,0,1-.75,7.53m.35.44a6,6,0,1,0-8.31-1A5.91,5.91,0,0,0,1333.56,491.43Z" style="fill:#fff"/><path d="M1349.33,463.82a5.68,5.68,0,1,1-.8,7.93A5.65,5.65,0,0,1,1349.33,463.82Z" style="fill:#fff"/><path d="M1356.27,472.46a5.4,5.4,0,1,1,.76-7.53,5.37,5.37,0,0,1-.76,7.53m.35.44a6,6,0,1,0-8.31-1A5.92,5.92,0,0,0,1356.62,472.9Z" style="fill:#fff"/><path d="M1372.4,445.29a5.68,5.68,0,1,1-.8,7.93A5.64,5.64,0,0,1,1372.4,445.29Z" style="fill:#fff"/><path d="M1379.33,453.92a5.4,5.4,0,1,1,.76-7.53,5.35,5.35,0,0,1-.76,7.53m.36.44a6,6,0,1,0-8.31-1A5.91,5.91,0,0,0,1379.69,454.36Z" style="fill:#fff"/><path d="M1395.46,426.75a5.68,5.68,0,1,1-.8,7.93A5.64,5.64,0,0,1,1395.46,426.75Z" style="fill:#fff"/><path d="M1402.4,435.39a5.4,5.4,0,1,1,.75-7.54,5.37,5.37,0,0,1-.75,7.54m.35.44a6,6,0,1,0-8.31-1A5.91,5.91,0,0,0,1402.75,435.83Z" style="fill:#fff"/><path d="M1418.52,408.22a5.68,5.68,0,1,1-.79,7.92A5.65,5.65,0,0,1,1418.52,408.22Z" style="fill:#fff"/><path d="M1425.46,416.85a5.4,5.4,0,1,1,.76-7.53,5.35,5.35,0,0,1-.76,7.53m.36.44a6,6,0,1,0-8.31-1A5.93,5.93,0,0,0,1425.82,417.29Z" style="fill:#fff"/><path d="M1441.59,389.68a5.68,5.68,0,1,1-.8,7.93A5.63,5.63,0,0,1,1441.59,389.68Z" style="fill:#fff"/><path d="M1448.53,398.31a5.4,5.4,0,1,1,.75-7.53,5.35,5.35,0,0,1-.75,7.53m.35.44a6,6,0,1,0-8.31-1A5.91,5.91,0,0,0,1448.88,398.75Z" style="fill:#fff"/><path d="M1464.65,371.14a5.68,5.68,0,1,1-.8,7.93A5.64,5.64,0,0,1,1464.65,371.14Z" style="fill:#fff"/><path d="M1471.59,379.78a5.4,5.4,0,1,1,.75-7.53,5.37,5.37,0,0,1-.75,7.53m.35.44a6,6,0,1,0-8.31-1A5.91,5.91,0,0,0,1471.94,380.22Z" style="fill:#fff"/><path d="M1487.71,352.61a5.68,5.68,0,1,1-.79,7.92A5.65,5.65,0,0,1,1487.71,352.61Z" style="fill:#fff"/><path d="M1494.65,361.24a5.4,5.4,0,1,1,.76-7.53,5.35,5.35,0,0,1-.76,7.53m.36.44a6,6,0,1,0-8.31-1A5.92,5.92,0,0,0,1495,361.68Z" style="fill:#fff"/><path d="M1510.78,334.07a5.68,5.68,0,1,1-.8,7.93A5.64,5.64,0,0,1,1510.78,334.07Z" style="fill:#fff"/><path d="M1517.72,342.71a5.4,5.4,0,1,1,.75-7.54,5.36,5.36,0,0,1-.75,7.54m.35.44a6,6,0,1,0-8.31-1A5.92,5.92,0,0,0,1518.07,343.15Z" style="fill:#fff"/><path d="M1349.32,510a5.05,5.05,0,1,1-.71,7.06A5,5,0,0,1,1349.32,510Z" style="fill:#fff"/><path d="M1355.48,517.7a4.77,4.77,0,1,1,.66-6.65,4.74,4.74,0,0,1-.66,6.65m.35.44a5.34,5.34,0,1,0-7.44-.87A5.29,5.29,0,0,0,1355.83,518.14Z" style="fill:#fff"/><path d="M1372.39,491.51a5.05,5.05,0,1,1-.71,7.05A5,5,0,0,1,1372.39,491.51Z" style="fill:#fff"/><path d="M1378.54,499.16a4.77,4.77,0,1,1,.67-6.65,4.73,4.73,0,0,1-.67,6.65m.35.44a5.33,5.33,0,1,0-7.43-.86A5.29,5.29,0,0,0,1378.89,499.6Z" style="fill:#fff"/><path d="M1395.45,473a5.05,5.05,0,1,1-.71,7A5,5,0,0,1,1395.45,473Z" style="fill:#fff"/><path d="M1401.6,480.63a4.77,4.77,0,1,1,.67-6.66,4.73,4.73,0,0,1-.67,6.66m.36.44a5.34,5.34,0,1,0-7.44-.87A5.29,5.29,0,0,0,1402,481.07Z" style="fill:#fff"/><path d="M1418.51,454.44a5.05,5.05,0,1,1-.7,7.05A5,5,0,0,1,1418.51,454.44Z" style="fill:#fff"/><path d="M1424.67,462.09a4.77,4.77,0,1,1,.66-6.65,4.73,4.73,0,0,1-.66,6.65m.35.44a5.33,5.33,0,1,0-7.44-.87A5.29,5.29,0,0,0,1425,462.53Z" style="fill:#fff"/><path d="M1441.58,435.9a5.05,5.05,0,1,1-.71,7.05A5,5,0,0,1,1441.58,435.9Z" style="fill:#fff"/><path d="M1447.73,443.56a4.77,4.77,0,1,1,.67-6.66,4.73,4.73,0,0,1-.67,6.66m.35.44a5.34,5.34,0,1,0-7.43-.87A5.29,5.29,0,0,0,1448.08,444Z" style="fill:#fff"/><path d="M1464.64,417.36a5.05,5.05,0,1,1-.71,7.06A5,5,0,0,1,1464.64,417.36Z" style="fill:#fff"/><path d="M1470.79,425a4.77,4.77,0,1,1,.67-6.65,4.73,4.73,0,0,1-.67,6.65m.36.44a5.34,5.34,0,1,0-7.44-.87A5.29,5.29,0,0,0,1471.15,425.46Z" style="fill:#fff"/><path d="M1487.71,398.83a5.05,5.05,0,1,1-.71,7.05A5,5,0,0,1,1487.71,398.83Z" style="fill:#fff"/><path d="M1493.86,406.48a4.77,4.77,0,1,1,.66-6.65,4.73,4.73,0,0,1-.66,6.65m.35.44a5.33,5.33,0,1,0-7.43-.86A5.28,5.28,0,0,0,1494.21,406.92Z" style="fill:#fff"/><path d="M1510.77,380.29a5.05,5.05,0,1,1-.71,7A5,5,0,0,1,1510.77,380.29Z" style="fill:#fff"/><path d="M1516.92,388a4.77,4.77,0,1,1,.67-6.66,4.73,4.73,0,0,1-.67,6.66m.36.44a5.34,5.34,0,1,0-7.44-.87A5.3,5.3,0,0,0,1517.28,388.39Z" style="fill:#fff"/><path d="M1395.44,519.19a4.43,4.43,0,1,1-.62,6.18A4.4,4.4,0,0,1,1395.44,519.19Z" style="fill:#fff"/><path d="M1400.81,525.87a4.14,4.14,0,1,1,.58-5.78,4.11,4.11,0,0,1-.58,5.78m.35.44a4.71,4.71,0,1,0-6.56-.76A4.66,4.66,0,0,0,1401.16,526.31Z" style="fill:#fff"/><path d="M1418.51,500.66a4.42,4.42,0,1,1-.62,6.17A4.38,4.38,0,0,1,1418.51,500.66Z" style="fill:#fff"/><path d="M1423.87,507.33a4.14,4.14,0,1,1,.58-5.77,4.1,4.1,0,0,1-.58,5.77m.36.44a4.71,4.71,0,1,0-6.56-.76A4.67,4.67,0,0,0,1424.23,507.77Z" style="fill:#fff"/><path d="M1441.57,482.12a4.43,4.43,0,1,1-.62,6.18A4.39,4.39,0,0,1,1441.57,482.12Z" style="fill:#fff"/><path d="M1446.94,488.8a4.14,4.14,0,1,1,.57-5.78,4.12,4.12,0,0,1-.57,5.78m.35.44a4.71,4.71,0,1,0-6.56-.77A4.66,4.66,0,0,0,1447.29,489.24Z" style="fill:#fff"/><path d="M1464.63,463.59a4.42,4.42,0,1,1-.62,6.17A4.4,4.4,0,0,1,1464.63,463.59Z" style="fill:#fff"/><path d="M1470,470.26a4.14,4.14,0,1,1,.58-5.78,4.11,4.11,0,0,1-.58,5.78m.35.44a4.7,4.7,0,1,0-6.56-.76A4.66,4.66,0,0,0,1470.35,470.7Z" style="fill:#fff"/><path d="M1487.7,445.05a4.43,4.43,0,1,1-.62,6.17A4.39,4.39,0,0,1,1487.7,445.05Z" style="fill:#fff"/><path d="M1493.06,451.73a4.14,4.14,0,1,1,.58-5.78,4.11,4.11,0,0,1-.58,5.78m.36.44a4.71,4.71,0,1,0-6.56-.77A4.68,4.68,0,0,0,1493.42,452.17Z" style="fill:#fff"/><path d="M1510.76,426.51a4.43,4.43,0,1,1-.62,6.18A4.38,4.38,0,0,1,1510.76,426.51Z" style="fill:#fff"/><path d="M1516.13,433.19a4.14,4.14,0,1,1,.58-5.78,4.11,4.11,0,0,1-.58,5.78m.35.44a4.71,4.71,0,1,0-6.56-.76A4.67,4.67,0,0,0,1516.48,433.63Z" style="fill:#fff"/><path d="M1464.62,509.81a3.8,3.8,0,1,1-.53,5.29A3.76,3.76,0,0,1,1464.62,509.81Z" style="fill:#fff"/><path d="M1469.21,515.51a3.52,3.52,0,1,1,.48-4.91,3.5,3.5,0,0,1-.48,4.91m.35.44a4.08,4.08,0,1,0-5.69-.67A4,4,0,0,0,1469.56,516Z" style="fill:#fff"/><path d="M1487.69,491.27a3.8,3.8,0,1,1-.53,5.3A3.77,3.77,0,0,1,1487.69,491.27Z" style="fill:#fff"/><path d="M1492.27,497a3.51,3.51,0,1,1,.49-4.9,3.49,3.49,0,0,1-.49,4.9m.35.44a4.08,4.08,0,1,0-5.68-.66A4.05,4.05,0,0,0,1492.62,497.41Z" style="fill:#fff"/><path d="M1510.75,472.73a3.8,3.8,0,1,1-.53,5.3A3.77,3.77,0,0,1,1510.75,472.73Z" style="fill:#fff"/><path d="M1515.33,478.43a3.51,3.51,0,1,1,.49-4.9,3.48,3.48,0,0,1-.49,4.9m.36.44a4.08,4.08,0,1,0-5.69-.66A4,4,0,0,0,1515.69,478.87Z" style="fill:#fff"/><path d="M1510.74,519a3.17,3.17,0,1,1-.44,4.42A3.15,3.15,0,0,1,1510.74,519Z" style="fill:#fff"/><path d="M1514.54,523.68a2.89,2.89,0,1,1,.4-4,2.88,2.88,0,0,1-.4,4m.35.44a3.45,3.45,0,1,0-4.81-.57A3.43,3.43,0,0,0,1514.89,524.12Z" style="fill:#fff"/></g><g style="clip-path:url(#clip-path-2)"><path d="M170.47,18.76A7.57,7.57,0,1,1,167.56,29,7.51,7.51,0,0,1,170.47,18.76Z" style="fill:#fff"/><path d="M177.54,31.71A7.19,7.19,0,1,1,180.3,22a7.14,7.14,0,0,1-2.76,9.69m.36.66a7.94,7.94,0,1,0-10.67-3.22A7.87,7.87,0,0,0,177.9,32.37Z" style="fill:#fff"/><path d="M205.08-.13A7.51,7.51,0,0,1,215.24,3a7.52,7.52,0,0,1-2.91,10.21,7.53,7.53,0,0,1-10.16-3.08A7.51,7.51,0,0,1,205.08-.13Z" style="fill:#fff"/><path d="M212.15,12.83A7.15,7.15,0,0,1,202.5,9.9,7.14,7.14,0,0,1,205.26.2a7.14,7.14,0,0,1,9.65,2.93,7.14,7.14,0,0,1-2.76,9.7m.36.66a7.89,7.89,0,0,0,3.06-10.72,7.82,7.82,0,1,0-3.06,10.72Z" style="fill:#fff"/><path d="M194.2,60.49a6.73,6.73,0,1,1-2.59,9.08A6.69,6.69,0,0,1,194.2,60.49Z" style="fill:#fff"/><path d="M200.47,72a6.35,6.35,0,1,1,2.44-8.57A6.32,6.32,0,0,1,200.47,72m.36.66a7.1,7.1,0,1,0-9.55-2.88A7.05,7.05,0,0,0,200.83,72.63Z" style="fill:#fff"/><path d="M228.81,41.6a6.73,6.73,0,1,1-2.59,9.08A6.68,6.68,0,0,1,228.81,41.6Z" style="fill:#fff"/><path d="M235.08,53.08a6.35,6.35,0,1,1,2.43-8.57,6.3,6.3,0,0,1-2.43,8.57m.36.67a7.11,7.11,0,1,0-9.55-2.89A7.06,7.06,0,0,0,235.44,53.75Z" style="fill:#fff"/><path d="M263.41,22.71a6.73,6.73,0,1,1-2.59,9.08A6.69,6.69,0,0,1,263.41,22.71Z" style="fill:#fff"/><path d="M269.68,34.2a6.36,6.36,0,1,1,2.44-8.57,6.31,6.31,0,0,1-2.44,8.57m.36.66A7.11,7.11,0,1,0,260.49,32,7.06,7.06,0,0,0,270,34.86Z" style="fill:#fff"/><path d="M298,3.82a6.67,6.67,0,0,1,9,2.74,6.62,6.62,0,1,1-11.62,6.34A6.68,6.68,0,0,1,298,3.82Z" style="fill:#fff"/><path d="M304.29,15.31a6.36,6.36,0,1,1,2.43-8.57,6.31,6.31,0,0,1-2.43,8.57m.36.66a7.05,7.05,0,0,0,2.73-9.59A7,7,0,1,0,304.65,16Z" style="fill:#fff"/><path d="M217.93,102.21a5.9,5.9,0,1,1-2.26,8A5.87,5.87,0,0,1,217.93,102.21Z" style="fill:#fff"/><path d="M223.4,112.23a5.52,5.52,0,1,1,2.12-7.44,5.46,5.46,0,0,1-2.12,7.44m.36.66a6.27,6.27,0,1,0-8.42-2.54A6.23,6.23,0,0,0,223.76,112.89Z" style="fill:#fff"/><path d="M252.54,83.33a5.89,5.89,0,1,1-2.27,8A5.85,5.85,0,0,1,252.54,83.33Z" style="fill:#fff"/><path d="M258,93.34a5.51,5.51,0,1,1,2.12-7.44A5.47,5.47,0,0,1,258,93.34m.36.67a6.27,6.27,0,1,0-8.42-2.55A6.23,6.23,0,0,0,258.36,94Z" style="fill:#fff"/><path d="M287.14,64.44a5.9,5.9,0,1,1-2.26,8A5.85,5.85,0,0,1,287.14,64.44Z" style="fill:#fff"/><path d="M292.61,74.46A5.52,5.52,0,1,1,294.72,67a5.47,5.47,0,0,1-2.11,7.45m.36.66a6.27,6.27,0,1,0-8.43-2.55A6.25,6.25,0,0,0,293,75.12Z" style="fill:#fff"/><path d="M321.75,45.55a5.89,5.89,0,1,1-2.27,8A5.85,5.85,0,0,1,321.75,45.55Z" style="fill:#fff"/><path d="M327.21,55.57a5.52,5.52,0,1,1,2.12-7.44,5.48,5.48,0,0,1-2.12,7.44m.36.66a6.27,6.27,0,1,0-8.42-2.55A6.22,6.22,0,0,0,327.57,56.23Z" style="fill:#fff"/><path d="M356.35,26.66a5.9,5.9,0,1,1-2.27,8A5.84,5.84,0,0,1,356.35,26.66Z" style="fill:#fff"/><path d="M361.82,36.68a5.52,5.52,0,1,1,2.11-7.44,5.47,5.47,0,0,1-2.11,7.44m.36.66a6.27,6.27,0,1,0-8.43-2.55A6.22,6.22,0,0,0,362.18,37.34Z" style="fill:#fff"/><path d="M391,7.77a5.89,5.89,0,1,1-2.27,8A5.85,5.85,0,0,1,391,7.77Z" style="fill:#fff"/><path d="M396.42,17.79a5.52,5.52,0,1,1,2.12-7.44,5.47,5.47,0,0,1-2.12,7.44m.36.66a6.27,6.27,0,0,0-6-11,6.27,6.27,0,0,0,6,11Z" style="fill:#fff"/><path d="M431-1.1a5.48,5.48,0,0,1-7.41-2.24,5.5,5.5,0,0,1,2.12-7.45,5.48,5.48,0,0,1,7.4,2.25A5.47,5.47,0,0,1,431-1.1m.36.66A6.22,6.22,0,0,0,433.8-8.9a6.22,6.22,0,0,0-8.42-2.55A6.24,6.24,0,0,0,423-3,6.22,6.22,0,0,0,431.39-.44Z" style="fill:#fff"/><path d="M241.66,143.94a5.06,5.06,0,1,1-1.94,6.83A5,5,0,0,1,241.66,143.94Z" style="fill:#fff"/><path d="M246.33,152.49a4.68,4.68,0,1,1,1.79-6.31,4.64,4.64,0,0,1-1.79,6.31m.36.66a5.44,5.44,0,1,0-7.3-2.2A5.39,5.39,0,0,0,246.69,153.15Z" style="fill:#fff"/><path d="M276.27,125.05a5.06,5.06,0,1,1-1.95,6.83A5,5,0,0,1,276.27,125.05Z" style="fill:#fff"/><path d="M280.93,133.6a4.68,4.68,0,1,1,1.8-6.31,4.65,4.65,0,0,1-1.8,6.31m.36.67a5.44,5.44,0,1,0-7.3-2.21A5.41,5.41,0,0,0,281.29,134.27Z" style="fill:#fff"/><path d="M310.87,106.17a5.06,5.06,0,1,1-1.94,6.82A5,5,0,0,1,310.87,106.17Z" style="fill:#fff"/><path d="M315.54,114.72a4.68,4.68,0,1,1,1.79-6.32,4.65,4.65,0,0,1-1.79,6.32m.36.66a5.44,5.44,0,1,0-7.3-2.21A5.4,5.4,0,0,0,315.9,115.38Z" style="fill:#fff"/><path d="M345.47,87.28a5.06,5.06,0,1,1-1.94,6.82A5,5,0,0,1,345.47,87.28Z" style="fill:#fff"/><path d="M350.14,95.83a4.68,4.68,0,1,1,1.8-6.32,4.65,4.65,0,0,1-1.8,6.32m.36.66a5.44,5.44,0,1,0-7.3-2.21A5.4,5.4,0,0,0,350.5,96.49Z" style="fill:#fff"/><path d="M380.08,68.39a5.06,5.06,0,1,1-1.94,6.82A5,5,0,0,1,380.08,68.39Z" style="fill:#fff"/><path d="M384.75,76.94a4.68,4.68,0,1,1,1.79-6.32,4.65,4.65,0,0,1-1.79,6.32m.36.66a5.44,5.44,0,1,0-7.3-2.21A5.4,5.4,0,0,0,385.11,77.6Z" style="fill:#fff"/><path d="M414.68,49.5a5.06,5.06,0,1,1-1.94,6.82A5,5,0,0,1,414.68,49.5Z" style="fill:#fff"/><path d="M419.35,58.05a4.68,4.68,0,1,1,1.79-6.31,4.64,4.64,0,0,1-1.79,6.31m.36.66a5.44,5.44,0,1,0-7.3-2.21A5.39,5.39,0,0,0,419.71,58.71Z" style="fill:#fff"/><path d="M449.29,30.61a5.06,5.06,0,1,1-1.94,6.83A5,5,0,0,1,449.29,30.61Z" style="fill:#fff"/><path d="M454,39.16a4.68,4.68,0,1,1,1.79-6.31A4.64,4.64,0,0,1,454,39.16m.36.66a5.44,5.44,0,1,0-7.3-2.2A5.39,5.39,0,0,0,454.32,39.82Z" style="fill:#fff"/><path d="M483.89,11.72A5.06,5.06,0,1,1,482,18.55,5,5,0,0,1,483.89,11.72Z" style="fill:#fff"/><path d="M488.56,20.27A4.68,4.68,0,1,1,490.35,14a4.64,4.64,0,0,1-1.79,6.31m.36.66a5.44,5.44,0,1,0-7.3-2.2A5.38,5.38,0,0,0,488.92,20.93Z" style="fill:#fff"/><path d="M518.5-7.17a5,5,0,0,1,6.79,2.06,5,5,0,0,1-1.94,6.82,5,5,0,0,1-6.8-2A5,5,0,0,1,518.5-7.17Z" style="fill:#fff"/><path d="M523.17,1.38a4.66,4.66,0,0,1-6.29-1.9,4.66,4.66,0,0,1,1.8-6.32A4.65,4.65,0,0,1,525-4.93a4.64,4.64,0,0,1-1.79,6.31m.36.66a5.39,5.39,0,0,0,2.09-7.33,5.4,5.4,0,0,0-7.3-2.21,5.4,5.4,0,0,0-2.1,7.34A5.4,5.4,0,0,0,523.53,2Z" style="fill:#fff"/><path d="M334.6,147.89a4.23,4.23,0,1,1-1.62,5.7A4.21,4.21,0,0,1,334.6,147.89Z" style="fill:#fff"/><path d="M338.46,155a3.85,3.85,0,1,1,1.48-5.19,3.82,3.82,0,0,1-1.48,5.19m.37.66a4.6,4.6,0,1,0-6.18-1.87A4.58,4.58,0,0,0,338.83,155.64Z" style="fill:#fff"/><path d="M369.2,129a4.23,4.23,0,1,1-1.62,5.7A4.2,4.2,0,0,1,369.2,129Z" style="fill:#fff"/><path d="M373.07,136.09a3.85,3.85,0,1,1,1.47-5.19,3.83,3.83,0,0,1-1.47,5.19m.36.66a4.6,4.6,0,1,0-6.18-1.87A4.56,4.56,0,0,0,373.43,136.75Z" style="fill:#fff"/><path d="M403.81,110.12a4.22,4.22,0,1,1-1.62,5.69A4.19,4.19,0,0,1,403.81,110.12Z" style="fill:#fff"/><path d="M407.67,117.2a3.84,3.84,0,1,1,1.48-5.19,3.81,3.81,0,0,1-1.48,5.19m.37.66a4.6,4.6,0,1,0-6.18-1.87A4.58,4.58,0,0,0,408,117.86Z" style="fill:#fff"/><path d="M438.41,91.23a4.22,4.22,0,1,1-1.62,5.69A4.19,4.19,0,0,1,438.41,91.23Z" style="fill:#fff"/><path d="M442.28,98.31a3.85,3.85,0,1,1,1.47-5.19,3.82,3.82,0,0,1-1.47,5.19m.36.66a4.6,4.6,0,1,0-6.18-1.87A4.57,4.57,0,0,0,442.64,99Z" style="fill:#fff"/><path d="M473,72.34A4.22,4.22,0,1,1,471.4,78,4.19,4.19,0,0,1,473,72.34Z" style="fill:#fff"/><path d="M476.88,79.42a3.84,3.84,0,1,1,1.47-5.18,3.8,3.8,0,0,1-1.47,5.18m.36.66a4.6,4.6,0,1,0-6.17-1.87A4.56,4.56,0,0,0,477.24,80.08Z" style="fill:#fff"/><path d="M507.62,53.45a4.22,4.22,0,1,1-1.62,5.7A4.19,4.19,0,0,1,507.62,53.45Z" style="fill:#fff"/><path d="M511.49,60.53A3.85,3.85,0,1,1,513,55.35a3.82,3.82,0,0,1-1.47,5.18m.36.66a4.6,4.6,0,1,0-6.18-1.86A4.56,4.56,0,0,0,511.85,61.19Z" style="fill:#fff"/><path d="M542.23,34.56a4.22,4.22,0,1,1-1.62,5.7A4.18,4.18,0,0,1,542.23,34.56Z" style="fill:#fff"/><path d="M546.09,41.64a3.84,3.84,0,1,1,1.47-5.18,3.8,3.8,0,0,1-1.47,5.18m.36.66a4.6,4.6,0,1,0-6.17-1.86A4.56,4.56,0,0,0,546.45,42.3Z" style="fill:#fff"/><path d="M427.54,151.84a3.39,3.39,0,1,1-1.3,4.57A3.36,3.36,0,0,1,427.54,151.84Z" style="fill:#fff"/><path d="M430.6,157.46a3,3,0,1,1,1.15-4.06,3,3,0,0,1-1.15,4.06m.36.66a3.76,3.76,0,1,0-5-1.53A3.73,3.73,0,0,0,431,158.12Z" style="fill:#fff"/><path d="M462.14,133a3.39,3.39,0,1,1-1.3,4.57A3.38,3.38,0,0,1,462.14,133Z" style="fill:#fff"/><path d="M465.21,138.57a3,3,0,1,1,1.15-4.06,3,3,0,0,1-1.15,4.06m.36.66a3.77,3.77,0,1,0-5.06-1.53A3.75,3.75,0,0,0,465.57,139.23Z" style="fill:#fff"/><path d="M496.75,114.07a3.38,3.38,0,1,1-1.3,4.56A3.35,3.35,0,0,1,496.75,114.07Z" style="fill:#fff"/><path d="M499.81,119.68a3,3,0,1,1,1.15-4.06,3,3,0,0,1-1.15,4.06m.36.66a3.76,3.76,0,1,0-5.05-1.53A3.73,3.73,0,0,0,500.17,120.34Z" style="fill:#fff"/><path d="M531.35,95.18a3.39,3.39,0,1,1-1.3,4.56A3.37,3.37,0,0,1,531.35,95.18Z" style="fill:#fff"/><path d="M534.42,100.79a3,3,0,1,1,1.15-4.05,3,3,0,0,1-1.15,4.05m.36.66a3.76,3.76,0,1,0-5.06-1.53A3.74,3.74,0,0,0,534.78,101.45Z" style="fill:#fff"/><path d="M140.9,8.11A7.57,7.57,0,1,1,138,18.32,7.53,7.53,0,0,1,140.9,8.11Z" style="fill:#fff"/><path d="M148,21.07a7.19,7.19,0,1,1,2.76-9.7,7.14,7.14,0,0,1-2.76,9.7m.36.66a7.95,7.95,0,0,0-7.61-13.95,7.95,7.95,0,0,0,7.61,14Z" style="fill:#fff"/><path d="M175.5-10.77A7.51,7.51,0,0,1,185.66-7.7a7.52,7.52,0,0,1-2.91,10.21A7.51,7.51,0,0,1,172.59-.56,7.52,7.52,0,0,1,175.5-10.77Z" style="fill:#fff"/><path d="M182.57,2.18a7.14,7.14,0,0,1-9.65-2.93,7.13,7.13,0,0,1,2.76-9.69,7.14,7.14,0,0,1,9.65,2.92,7.14,7.14,0,0,1-2.76,9.7m.36.66A7.89,7.89,0,0,0,186-7.88a7.88,7.88,0,0,0-10.67-3.22A7.88,7.88,0,0,0,172.26-.38,7.88,7.88,0,0,0,182.93,2.84Z" style="fill:#fff"/><path d="M164.62,49.84A6.73,6.73,0,1,1,162,58.92,6.69,6.69,0,0,1,164.62,49.84Z" style="fill:#fff"/><path d="M170.89,61.33a6.36,6.36,0,1,1,2.44-8.57,6.3,6.3,0,0,1-2.44,8.57m.36.66a7.11,7.11,0,1,0-9.54-2.89A7,7,0,0,0,171.25,62Z" style="fill:#fff"/><path d="M199.23,31A6.73,6.73,0,1,1,196.64,40,6.69,6.69,0,0,1,199.23,31Z" style="fill:#fff"/><path d="M205.5,42.44a6.36,6.36,0,1,1,2.44-8.57,6.31,6.31,0,0,1-2.44,8.57m.36.66a7.11,7.11,0,1,0-9.55-2.89A7.06,7.06,0,0,0,205.86,43.1Z" style="fill:#fff"/><path d="M233.83,12.06a6.73,6.73,0,1,1-2.58,9.09A6.69,6.69,0,0,1,233.83,12.06Z" style="fill:#fff"/><path d="M240.1,23.55A6.35,6.35,0,1,1,242.54,15a6.3,6.3,0,0,1-2.44,8.57m.36.66a7.11,7.11,0,1,0-9.54-2.88A7,7,0,0,0,240.46,24.21Z" style="fill:#fff"/><path d="M268.44-6.82a6.69,6.69,0,0,1,9,2.73A6.7,6.7,0,0,1,274.89,5a6.69,6.69,0,0,1-9-2.73A6.68,6.68,0,0,1,268.44-6.82Z" style="fill:#fff"/><path d="M274.71,4.66a6.32,6.32,0,0,1-8.53-2.58,6.31,6.31,0,0,1,2.44-8.57,6.32,6.32,0,0,1,8.53,2.58,6.32,6.32,0,0,1-2.44,8.57m.36.66a7.05,7.05,0,0,0,2.74-9.59,7.05,7.05,0,0,0-9.55-2.88,7.05,7.05,0,0,0-2.74,9.59A7.06,7.06,0,0,0,275.07,5.32Z" style="fill:#fff"/><path d="M188.35,91.57a5.9,5.9,0,1,1-2.26,8A5.86,5.86,0,0,1,188.35,91.57Z" style="fill:#fff"/><path d="M193.82,101.59a5.52,5.52,0,1,1,2.12-7.44,5.48,5.48,0,0,1-2.12,7.44m.36.66a6.27,6.27,0,1,0-8.42-2.55A6.22,6.22,0,0,0,194.18,102.25Z" style="fill:#fff"/><path d="M223,72.68a5.9,5.9,0,1,1-2.27,7.95A5.84,5.84,0,0,1,223,72.68Z" style="fill:#fff"/><path d="M228.43,82.7a5.52,5.52,0,1,1,2.11-7.44,5.49,5.49,0,0,1-2.11,7.44m.36.66a6.27,6.27,0,1,0-8.43-2.55A6.22,6.22,0,0,0,228.79,83.36Z" style="fill:#fff"/><path d="M257.56,53.79a5.9,5.9,0,1,1-2.26,8A5.86,5.86,0,0,1,257.56,53.79Z" style="fill:#fff"/><path d="M263,63.81a5.52,5.52,0,1,1,2.12-7.44A5.47,5.47,0,0,1,263,63.81m.36.66A6.27,6.27,0,1,0,255,61.92,6.21,6.21,0,0,0,263.39,64.47Z" style="fill:#fff"/><path d="M292.17,34.9a5.9,5.9,0,1,1-2.27,8A5.86,5.86,0,0,1,292.17,34.9Z" style="fill:#fff"/><path d="M297.64,44.92a5.52,5.52,0,1,1,2.11-7.44,5.48,5.48,0,0,1-2.11,7.44m.36.66A6.27,6.27,0,1,0,289.57,43,6.22,6.22,0,0,0,298,45.58Z" style="fill:#fff"/><path d="M326.77,16a5.9,5.9,0,1,1-2.26,8A5.87,5.87,0,0,1,326.77,16Z" style="fill:#fff"/><path d="M332.24,26a5.52,5.52,0,1,1,2.12-7.44A5.47,5.47,0,0,1,332.24,26m.36.66a6.27,6.27,0,1,0-8.42-2.54A6.22,6.22,0,0,0,332.6,26.69Z" style="fill:#fff"/><path d="M361.38-2.87a5.85,5.85,0,0,1,7.91,2.39,5.85,5.85,0,0,1-2.26,8,5.85,5.85,0,0,1-7.92-2.39A5.85,5.85,0,0,1,361.38-2.87Z" style="fill:#fff"/><path d="M366.85,7.14a5.48,5.48,0,0,1-7.41-2.24,5.47,5.47,0,0,1,2.12-7.44A5.47,5.47,0,0,1,369-.3a5.47,5.47,0,0,1-2.11,7.44m.36.67a6.23,6.23,0,0,0,2.41-8.47A6.21,6.21,0,0,0,361.2-3.2a6.21,6.21,0,0,0-2.42,8.46A6.23,6.23,0,0,0,367.21,7.81Z" style="fill:#fff"/><path d="M212.08,133.3a5.06,5.06,0,1,1-1.94,6.82A5,5,0,0,1,212.08,133.3Z" style="fill:#fff"/><path d="M216.75,141.85a4.68,4.68,0,1,1,1.79-6.32,4.65,4.65,0,0,1-1.79,6.32m.36.66a5.44,5.44,0,1,0-7.3-2.21A5.39,5.39,0,0,0,217.11,142.51Z" style="fill:#fff"/><path d="M246.69,114.41a5.06,5.06,0,1,1-1.95,6.82A5,5,0,0,1,246.69,114.41Z" style="fill:#fff"/><path d="M251.35,123a4.68,4.68,0,1,1,1.8-6.31,4.65,4.65,0,0,1-1.8,6.31m.37.66a5.44,5.44,0,1,0-7.31-2.21A5.4,5.4,0,0,0,251.72,123.62Z" style="fill:#fff"/><path d="M281.29,95.52a5.06,5.06,0,1,1-1.94,6.82A5,5,0,0,1,281.29,95.52Z" style="fill:#fff"/><path d="M286,104.07a4.68,4.68,0,1,1,1.79-6.31,4.64,4.64,0,0,1-1.79,6.31m.36.66a5.44,5.44,0,1,0-7.3-2.21A5.39,5.39,0,0,0,286.32,104.73Z" style="fill:#fff"/><path d="M315.9,76.63A5.06,5.06,0,1,1,314,83.46,5,5,0,0,1,315.9,76.63Z" style="fill:#fff"/><path d="M320.56,85.18a4.68,4.68,0,1,1,1.8-6.31,4.64,4.64,0,0,1-1.8,6.31m.36.66a5.43,5.43,0,1,0-7.3-2.2A5.38,5.38,0,0,0,320.92,85.84Z" style="fill:#fff"/><path d="M350.5,57.74a5.06,5.06,0,1,1-1.94,6.83A5,5,0,0,1,350.5,57.74Z" style="fill:#fff"/><path d="M355.17,66.29A4.68,4.68,0,1,1,357,60a4.64,4.64,0,0,1-1.79,6.31m.36.66a5.44,5.44,0,1,0-7.3-2.2A5.39,5.39,0,0,0,355.53,67Z" style="fill:#fff"/><path d="M385.11,38.85a5.06,5.06,0,1,1-1.95,6.83A5,5,0,0,1,385.11,38.85Z" style="fill:#fff"/><path d="M389.77,47.4a4.68,4.68,0,1,1,1.8-6.31,4.65,4.65,0,0,1-1.8,6.31m.36.66a5.43,5.43,0,1,0-7.3-2.2A5.38,5.38,0,0,0,390.13,48.06Z" style="fill:#fff"/><path d="M419.71,20a5.06,5.06,0,1,1-1.94,6.82A5,5,0,0,1,419.71,20Z" style="fill:#fff"/><path d="M424.38,28.52a4.68,4.68,0,1,1,1.79-6.32,4.65,4.65,0,0,1-1.79,6.32m.36.66a5.44,5.44,0,1,0-7.3-2.21A5.4,5.4,0,0,0,424.74,29.18Z" style="fill:#fff"/><path d="M454.32,1.08a5.06,5.06,0,1,1-1.95,6.82A5,5,0,0,1,454.32,1.08Z" style="fill:#fff"/><path d="M459,9.63a4.65,4.65,0,0,1-6.28-1.91,4.6,4.6,0,1,1,8.08-4.41A4.66,4.66,0,0,1,459,9.63m.36.66A5.4,5.4,0,0,0,461.44,3a5.35,5.35,0,1,0-2.1,7.34Z" style="fill:#fff"/><path d="M270.42,156.14a4.22,4.22,0,1,1-1.62,5.69A4.18,4.18,0,0,1,270.42,156.14Z" style="fill:#fff"/><path d="M274.28,163.22a3.84,3.84,0,1,1,1.47-5.19,3.81,3.81,0,0,1-1.47,5.19m.36.66a4.6,4.6,0,1,0-6.17-1.87A4.56,4.56,0,0,0,274.64,163.88Z" style="fill:#fff"/><path d="M305,137.25a4.22,4.22,0,1,1-1.62,5.69A4.19,4.19,0,0,1,305,137.25Z" style="fill:#fff"/><path d="M308.89,144.33a3.85,3.85,0,1,1,1.47-5.19,3.82,3.82,0,0,1-1.47,5.19m.36.66a4.6,4.6,0,1,0-6.18-1.87A4.57,4.57,0,0,0,309.25,145Z" style="fill:#fff"/><path d="M339.63,118.36a4.22,4.22,0,1,1-1.63,5.69A4.18,4.18,0,0,1,339.63,118.36Z" style="fill:#fff"/><path d="M343.49,125.44a3.84,3.84,0,1,1,1.47-5.18,3.81,3.81,0,0,1-1.47,5.18m.36.66a4.6,4.6,0,1,0-6.18-1.87A4.55,4.55,0,0,0,343.85,126.1Z" style="fill:#fff"/><path d="M374.23,99.47a4.22,4.22,0,1,1-1.62,5.7A4.19,4.19,0,0,1,374.23,99.47Z" style="fill:#fff"/><path d="M378.1,106.55a3.85,3.85,0,1,1,1.47-5.18,3.82,3.82,0,0,1-1.47,5.18m.36.66a4.6,4.6,0,1,0-6.18-1.86A4.56,4.56,0,0,0,378.46,107.21Z" style="fill:#fff"/><path d="M408.84,80.58a4.22,4.22,0,1,1-1.63,5.7A4.18,4.18,0,0,1,408.84,80.58Z" style="fill:#fff"/><path d="M412.7,87.66a3.84,3.84,0,1,1,1.47-5.18,3.82,3.82,0,0,1-1.47,5.18m.36.66a4.6,4.6,0,1,0-6.18-1.86A4.55,4.55,0,0,0,413.06,88.32Z" style="fill:#fff"/><path d="M443.44,61.69a4.23,4.23,0,1,1-1.62,5.7A4.21,4.21,0,0,1,443.44,61.69Z" style="fill:#fff"/><path d="M447.31,68.78a3.85,3.85,0,1,1,1.47-5.19,3.83,3.83,0,0,1-1.47,5.19m.36.66a4.6,4.6,0,1,0-6.18-1.87A4.57,4.57,0,0,0,447.67,69.44Z" style="fill:#fff"/><path d="M478.05,42.8a4.22,4.22,0,1,1-1.63,5.7A4.2,4.2,0,0,1,478.05,42.8Z" style="fill:#fff"/><path d="M481.91,49.89a3.85,3.85,0,1,1,1.47-5.19,3.83,3.83,0,0,1-1.47,5.19m.36.66a4.6,4.6,0,1,0-6.18-1.87A4.56,4.56,0,0,0,482.27,50.55Z" style="fill:#fff"/><path d="M512.65,23.92A4.22,4.22,0,1,1,511,29.61,4.19,4.19,0,0,1,512.65,23.92Z" style="fill:#fff"/><path d="M516.52,31A3.85,3.85,0,1,1,518,25.81,3.82,3.82,0,0,1,516.52,31m.36.66a4.6,4.6,0,1,0-6.18-1.87A4.58,4.58,0,0,0,516.88,31.66Z" style="fill:#fff"/><path d="M547.25,5a4.22,4.22,0,1,1-1.62,5.69A4.19,4.19,0,0,1,547.25,5Z" style="fill:#fff"/><path d="M551.12,12.11a3.85,3.85,0,1,1,1.47-5.19,3.82,3.82,0,0,1-1.47,5.19m.36.66a4.6,4.6,0,0,0-4.41-8.07,4.6,4.6,0,0,0,4.41,8.07Z" style="fill:#fff"/><path d="M398,141.2a3.39,3.39,0,1,1-1.3,4.57A3.36,3.36,0,0,1,398,141.2Z" style="fill:#fff"/><path d="M401,146.81a3,3,0,1,1,1.15-4.05,3,3,0,0,1-1.15,4.05m.37.66a3.76,3.76,0,1,0-5.06-1.52A3.72,3.72,0,0,0,401.39,147.47Z" style="fill:#fff"/><path d="M432.56,122.31a3.39,3.39,0,1,1-1.29,4.57A3.37,3.37,0,0,1,432.56,122.31Z" style="fill:#fff"/><path d="M435.63,127.92a3,3,0,1,1,1.15-4,3,3,0,0,1-1.15,4m.36.66a3.76,3.76,0,1,0-5.05-1.52A3.72,3.72,0,0,0,436,128.58Z" style="fill:#fff"/><path d="M467.17,103.42a3.39,3.39,0,1,1-1.3,4.57A3.36,3.36,0,0,1,467.17,103.42Z" style="fill:#fff"/><path d="M470.23,109a3,3,0,1,1,1.15-4.06,3,3,0,0,1-1.15,4.06m.36.66a3.76,3.76,0,1,0-5-1.53A3.73,3.73,0,0,0,470.59,109.7Z" style="fill:#fff"/><path d="M501.77,84.53a3.39,3.39,0,1,1-1.29,4.57A3.37,3.37,0,0,1,501.77,84.53Z" style="fill:#fff"/><path d="M504.84,90.15A3,3,0,1,1,506,86.09a3,3,0,0,1-1.15,4.06m.36.66a3.77,3.77,0,1,0-5.06-1.53A3.74,3.74,0,0,0,505.2,90.81Z" style="fill:#fff"/><path d="M536.38,65.64a3.39,3.39,0,1,1-1.3,4.57A3.36,3.36,0,0,1,536.38,65.64Z" style="fill:#fff"/><path d="M539.44,71.26a3,3,0,1,1,1.15-4.06,3,3,0,0,1-1.15,4.06m.36.66a3.76,3.76,0,1,0-5-1.53A3.73,3.73,0,0,0,539.8,71.92Z" style="fill:#fff"/></g><path d="M-39.95,165.31c.6-8.73.78-15.45,2.48-22.05,1.15-4.47.3-9.17,0-13.67-.55-7.67,1.59-14.49,4.86-21.12a99.1,99.1,0,0,0,4.21-9.06,45.75,45.75,0,0,1,11.81-18C-10.78,76.06-6.18,69.8-1.29,63.7c3.19-4,5.94-8.22,8.87-12.36a25.67,25.67,0,0,1,3.56-4.16,5.63,5.63,0,0,0-1.41-9.09C1.43,33.7-6.69,29-15.35,25.29c-1.17-.5-2.32-1.18-1.46-2.83.68-1.3,1.6-1.95,3-1.19C-6.35,25.18,1.7,27.84,8.78,32.48a9.43,9.43,0,0,0,7.08,1.8,2.38,2.38,0,0,0,2.27-2.45c.07-1.25.11-2.5.17-3.75.6-11.14-.38-22.22-1.28-33.3-.3-3.66.64-7.11,1.35-10.6.93-4.56,2.11-9.07,3.14-13.62a31.62,31.62,0,0,1,4.4-10c4.6-7.22,8.43-15,14.07-21.49,4.34-5,8.5-10.24,13.13-15,2-2.06,4.5-3.41,6.66-5.23,4.28-3.61,7.89-7.88,11.79-11.87C72.77-94.32,74-95,75.77-94.53s2.1,1.92,2.48,3.4c1.06,4.1-.74,7.89-1.29,11.8-1.07,7.58-3.1,15-4.76,22.44-1.24,5.54-.91,11.12-.54,16.67C72-35.8,70.82-31.63,70-27.41c-.38,2-.75,4.08-1.27,6.09C67.13-15,63.66-9.58,60-4.34,57.52-.88,55.76,3.07,52.83,6.17c-3.31,3.51-6.72,6.93-10.17,10.3-2,1.92-3.4,4.25-5.4,6.18s-.77,4.63,1.92,5.33c5.39,1.4,9.41-1.57,13.24-4.39s7.66-5.34,10.77-8.89a1,1,0,0,1,.39-.3c7-2.81,12.15-8.63,18.92-12S96-4.82,102.88-8.12a61.61,61.61,0,0,1,21.37-5.64c8.69-.75,17.46-1.35,26.17-.5a118.51,118.51,0,0,1,27.9,6.44c3.45,1.21,6.79,2.74,10.21,4.05,1.79.69,1.62,1.52.5,2.73S186.18.7,184.94,1.79c-5.71,5-12.3,8.88-18.81,12.6C155.4,20.53,144.7,26.9,132.4,29.79c-6,1.41-11.81,3.44-17.94,4.26a34.33,34.33,0,0,1-7.22.41,92.73,92.73,0,0,0-17.7-.24c-11.29,1.24-22.61.27-33.88,1.29a11.28,11.28,0,0,0-3.38.81c-3.68,1.57-4.57,5.24-2,8.33a15.43,15.43,0,0,0,11.56,5.6c5.11.24,10,1.62,15,2.6,6.35,1.24,12.81,2,19.22,2.92a107.77,107.77,0,0,1,28.45,8.11A205.15,205.15,0,0,1,146.55,75a83,83,0,0,1,21.68,18.18c2.8,3.39,5.92,6.52,8.87,9.8C184,110.7,190,119.09,196,127.52c.32.45.92.89.57,1.53s-1.05.4-1.58.26c-7.95-2.07-16.09-2.36-24.22-3A179.3,179.3,0,0,1,141,121.18c-10.74-2.67-21.31-5.92-31.21-10.89A97.45,97.45,0,0,1,93.57,99.35c-4.77-3.76-9.1-8-14-11.59a56.2,56.2,0,0,1-9.77-8.52c-2.33-2.67-5.54-4.24-8.32-6.34-5.1-3.86-9.68-8.42-15.31-11.58-1.61-.9-3.16-2-5-.55S38,65,38.57,67.16A56.59,56.59,0,0,0,50.86,90.84c7.68,8.63,15.6,17.11,21,27.49,4.13,7.9,8.46,15.69,9.55,24.77.4,3.31,2.35,6.2,2.82,9.55,1.09,7.55,1.5,15.08-.71,22.48-1.44,4.79-1.07,9.74-1.63,14.6-.89,7.67-3.25,15-4.84,22.42-.11.53-.12,1.24-.82,1.42-.48.12-.81-.26-1-.62-2.43-4.78-7.34-7.5-10-12-3.79-6.42-8.88-11.82-13.33-17.72A94.65,94.65,0,0,1,34.43,145.7c-1-4.94-2.78-9.76-3.6-14.77-1.58-9.64-1.58-19.33-1.5-29.07a121.28,121.28,0,0,0-2-25.58A21,21,0,0,0,23,67.38c-2.35-2.9-4.31-2.5-7,.05C10.86,72.28,10,78.58,9.34,85s-.12,12.93.35,19.42a68.35,68.35,0,0,1-2.86,23.91C3.44,140-3.23,149.79-9.91,159.6a71.5,71.5,0,0,1-17.42,17.63c-3.14,2.27-5.65,5.13-8.4,7.79-1.88,1.81-2.7,1.55-3.17-1.08C-40.12,177.11-40.6,170.23-39.95,165.31Z" style="fill:#1b1464"/><path d="M4.16,814c9.67-3.36,19.64-3.88,29.37-5.65,13.62-2.48,27.39-2.06,41.09-2.3,8.62-.16,17.31,1.25,25.9,2.45,11.75,1.65,23.45,3.62,35.06,6.21,14.15,3.15,28.06,7,42,11.07,14.92,4.35,29.16,10.26,43.58,15.82,8.1,3.12,15.9,7,22.79,12.39.75.59,1.93,1,1.82,2.17-.14,1.55-1.67,1.3-2.64,1.48-6.58,1.16-13.25,1.54-19.87,2.31-11.19,1.29-22.39,2.67-33.68,2.69a127.34,127.34,0,0,1-16.67-1.39c-15.63-2-31.46-1.67-47.06-3.9-17.88-2.55-36.11-3.19-53.63-7.71-15.09-3.9-30.47-6.86-45.12-12.44-5.89-2.24-12.06-3.69-17.87-6.22a57.84,57.84,0,0,1-10.58-5.38c-2.8-2-5.46-2.06-8,.5-11.4,11.39-25.64,19.58-36,32.14a14.67,14.67,0,0,1-1.94,1.74c-2.21,1.87-4.45,2.11-6.61,0s-2.2-4.22-.6-6.7c3.82-6,9.12-10.47,14.48-14.85,10.16-8.3,20.25-16.68,30-25.43a2.54,2.54,0,0,0,.67-3.58c-1-1.72-1.91-3.48-3-5.13-8.37-12.43-14-26.2-19.63-40-2.77-6.75-6.25-13.14-8.11-20.32-2.43-9.4-2.95-19.09-5-28.51-2.52-11.34-2.65-22.85-3.09-34.36-.22-5.67.46-11.34.21-17-.12-2.73-.55-5.4-.79-8.11-1.33-14.38,1-28.36,4.45-42.25,1.63-6.47,3.58-12.9,4.06-19.63.06-.81-.08-1.93,1-2.22s1.39.79,1.77,1.52C-33,602.2-28.18,611-23.95,620c4.6,9.85,8.55,20,13,30,2.92,6.55,6.56,12.77,8,19.93,2.92,14.69,6.46,29.25,9.14,44,2.74,15,3.26,30.24,4.59,45.38.76,8.74-1,17.3-3.41,25.65-1.26,4.41-1.47,9.08-3.42,13.3-.25.53-.43,1.35.16,1.7,1,.58,1.57-.34,2.23-.86,7.61-6.14,15.31-12.17,22.81-18.44,8.65-7.22,17.07-14.7,25.72-21.91,2.22-1.85,2.65-3.11.56-5.38-4.39-4.76-7.33-10.57-11.09-15.8C35,724.67,29.12,710,22.51,695.75c-7.37-15.89-9.94-33.07-12-50.39a202.08,202.08,0,0,1-.66-41.13c.8-9.13,1.25-18.23,1.63-27.37a94.17,94.17,0,0,0-.14-15.21A65.63,65.63,0,0,1,13.07,538c1.55-6.41.79-13.1,2.36-19.51.2-.83,0-1.88,1-2.17,1.3-.35,1.66.82,2.11,1.66,5,9.28,9.92,18.59,15,27.85,7,12.82,11.13,26.71,14.79,40.69,3.59,13.69,8.17,27.05,13,40.28,4,10.89,4.77,22.24,7,33.38,1.62,8.24,1.21,16.75,1.67,25.14.29,5.41,1,10.82,1,16.25,0,11.51,0,23-3.59,34.17-1.29,4.07-1.14,8.65-2.63,13.54,3.25-1.34,4.95-3.3,6.75-5.07C83.77,732.18,95.94,720,108.27,708c2.24-2.17,2.15-4,1-6.57q-9.39-21-18.58-42.16C86,648.5,84.21,637,82.31,625.46q-3-18.13-5.45-36.35c-.76-5.76-1.54-11.66-1.11-17.41,1.13-15.21-.48-30.45,1.21-45.66,1.21-10.94-.06-22,.06-33,.09-9,2.34-17.65,5-26.18.74-2.41,3.28-2.26,5.49.55,2.59,3.31,4.9,6.85,7.17,10.4a29.68,29.68,0,0,0,4.09,5.28c7.94,7.9,13.45,17.26,17.86,27.55s5.88,20.85,7.29,31.68A196.61,196.61,0,0,0,128,563.43c1.91,7.77,3.75,15.56,5.42,23.39,3.39,15.92,2.76,31.95,3.3,47.92.32,9.65-2.76,19.06-5.65,28.3a211.61,211.61,0,0,1-9.73,26.49,4.45,4.45,0,0,0-.28,4.28c4.73-4.61,9.4-9,13.85-13.58a80,80,0,0,1,6-6.06,11.78,11.78,0,0,0,4.38-7.47c1.08-6.87,5.13-12.55,8.06-18.69,5.73-12,14.43-21.85,22.42-32.28,8.78-11.45,19.54-21.08,28.67-32.15,13.15-16,28.7-29,45.89-40.35C262,535.6,273.28,527.58,284.88,520c10.57-7,21.37-13.5,33.72-17,2.22-.63,4.23-2,6.33-3.09,1.12-.56,2.28-1.19,3.48-.31,1.42,1,.84,2.42.42,3.72a84.79,84.79,0,0,1-12,24.22c-10.5,14.58-21.11,29.08-31.7,43.59-6.09,8.34-13.51,15.47-20.66,22.87-12.09,12.53-25.63,23.37-39.05,34.35-6.92,5.68-14.86,9.83-22.55,14.32-10.6,6.19-20.6,13.28-30.9,19.92-17.07,11-30.5,25.9-44.57,40.16a10.25,10.25,0,0,0-1,1.73c4.69-1.75,8.91-3.15,12.61-5.57,8.7-5.67,18.44-8.44,28.44-10.52A293.39,293.39,0,0,1,199.17,684a314.13,314.13,0,0,1,41.17-.8c18,.61,35.73,3.46,53.48,6.16a152.63,152.63,0,0,1,19.54,4.51c10.33,3,20.29,7.12,30.56,10.33,3.6,1.13,7.33,1.2,11,1.73,1.68.24,3.38.37,5,2-3.41,1.28-6.39,2.78-9.44,3.84-11.58,4-22.72,9.53-34.82,11.74-9.71,1.77-19.44,3.69-29.31,4.66s-19.92,2.35-29.87,3.62a216.16,216.16,0,0,1-34.08,2.06c-11.76-.37-23.55.32-35.27-1-14.62-1.6-29.28-2.91-43.88-4.83-10-1.32-19.56-4.24-29.33-6.44-2.4-.54-4.68-.48-6.5,1.56-9.89,11.13-21.09,20.94-31.72,31.31a16.51,16.51,0,0,0-1.18,1.74c10.64-3.92,21.24-4.07,31.34-6.72,5.54-1.46,11.13-1.19,16.62-.89,13.61.74,27.25,1.05,40.82,2.07,10.34.77,20.57,3,30.81,4.83a425.36,425.36,0,0,1,75.91,20.61c11,4.13,21.83,8.84,32.71,13.34,1,.4,2.54.5,2.44,1.85s-1.7,1.25-2.72,1.44c-18.72,3.53-37.24,8.23-56.28,10a180,180,0,0,1-20.77.28c-20.49-.45-40.73-3.43-61-6.23-13.59-1.89-27.29-3.79-40.42-7.85-19.29-6-39.38-9.2-58.17-16.58-6.6-2.59-10.32-1.19-15.06,3.16-13,11.88-26.8,22.78-40.6,33.7Z" style="fill:#1b1464"/><path d="M1316.29,688.19c40.15,3.25,63.68,39.64,69.44,48.55,39.29,60.75-4,110.27,34.39,163.15,23.71,32.7,47.69,24,64,56.64,19.07,38,7.06,90.93-18.87,122.7-50.81,62.24-174.72,67.56-238.67,0-39-41.23-58.28-112.32-34.38-157.76,14.89-28.32,41.07-36.28,47.19-72.82,3.07-18.31-2.64-21.56-2.7-60.67,0-34.54-.08-51.81,8.77-66.08C1259.58,699.19,1289.29,686,1316.29,688.19Z" style="fill:#ff4757"/><g style="clip-path:url(#clip-path-3)"><path d="M1166.08,765a5,5,0,1,1,3.09-6.38A5,5,0,0,1,1166.08,765Z" style="fill:#fff"/><path d="M1162.93,755.65a4.77,4.77,0,1,1-2.91,6,4.73,4.73,0,0,1,2.91-6m-.18-.53a5.33,5.33,0,1,0,6.68,3.36A5.29,5.29,0,0,0,1162.75,755.12Z" style="fill:#fff"/><path d="M1138.06,774.46a5.05,5.05,0,1,1,3.09-6.38A5,5,0,0,1,1138.06,774.46Z" style="fill:#fff"/><path d="M1134.91,765.16a4.77,4.77,0,1,1-2.91,6,4.73,4.73,0,0,1,2.91-6m-.18-.53a5.33,5.33,0,1,0,6.69,3.36A5.29,5.29,0,0,0,1134.73,764.63Z" style="fill:#fff"/><path d="M1181.93,721.54a4.42,4.42,0,1,1,2.7-5.59A4.4,4.4,0,0,1,1181.93,721.54Z" style="fill:#fff"/><path d="M1179.18,713.42a4.14,4.14,0,1,1-2.52,5.23,4.12,4.12,0,0,1,2.52-5.23m-.18-.53a4.71,4.71,0,1,0,5.9,3A4.68,4.68,0,0,0,1179,712.89Z" style="fill:#fff"/><path d="M1153.92,731a4.43,4.43,0,1,1,2.69-5.58A4.4,4.4,0,0,1,1153.92,731Z" style="fill:#fff"/><path d="M1151.16,722.93a4.14,4.14,0,1,1-2.52,5.23,4.11,4.11,0,0,1,2.52-5.23m-.18-.53a4.71,4.71,0,1,0,5.9,3A4.67,4.67,0,0,0,1151,722.4Z" style="fill:#fff"/><path d="M1125.89,740.55a4.42,4.42,0,1,1,2.7-5.59A4.39,4.39,0,0,1,1125.89,740.55Z" style="fill:#fff"/><path d="M1123.14,732.44a4.14,4.14,0,1,1-2.52,5.23,4.12,4.12,0,0,1,2.52-5.23m-.18-.54a4.71,4.71,0,1,0,5.9,3A4.69,4.69,0,0,0,1123,731.9Z" style="fill:#fff"/><path d="M1097.88,750.06a4.43,4.43,0,1,1,2.69-5.59A4.4,4.4,0,0,1,1097.88,750.06Z" style="fill:#fff"/><path d="M1095.12,742a4.14,4.14,0,1,1-2.52,5.23,4.12,4.12,0,0,1,2.52-5.23m-.18-.54a4.71,4.71,0,1,0,5.9,3A4.68,4.68,0,0,0,1094.94,741.41Z" style="fill:#fff"/><path d="M1069.85,759.57a4.42,4.42,0,1,1,2.7-5.59A4.39,4.39,0,0,1,1069.85,759.57Z" style="fill:#fff"/><path d="M1067.1,751.46a4.14,4.14,0,1,1-2.52,5.23,4.11,4.11,0,0,1,2.52-5.23m-.18-.54a4.71,4.71,0,1,0,5.9,3A4.68,4.68,0,0,0,1066.92,750.92Z" style="fill:#fff"/><path d="M1041.83,769.08a4.42,4.42,0,1,1,2.7-5.59A4.4,4.4,0,0,1,1041.83,769.08Z" style="fill:#fff"/><path d="M1039.08,761a4.14,4.14,0,1,1-2.52,5.23,4.12,4.12,0,0,1,2.52-5.23m-.18-.53a4.71,4.71,0,1,0,5.9,3A4.67,4.67,0,0,0,1038.9,760.43Z" style="fill:#fff"/><path d="M1013.81,778.58a4.42,4.42,0,1,1,2.7-5.59A4.39,4.39,0,0,1,1013.81,778.58Z" style="fill:#fff"/><path d="M1011.06,770.47a4.14,4.14,0,1,1-2.52,5.23,4.11,4.11,0,0,1,2.52-5.23m-.18-.53a4.71,4.71,0,1,0,5.9,3A4.67,4.67,0,0,0,1010.88,769.94Z" style="fill:#fff"/><path d="M1113.73,706.64a3.8,3.8,0,1,1,2.31-4.79A3.77,3.77,0,0,1,1113.73,706.64Z" style="fill:#fff"/><path d="M1111.38,699.72a3.51,3.51,0,1,1-2.14,4.43,3.48,3.48,0,0,1,2.14-4.43m-.19-.54a4.08,4.08,0,1,0,5.12,2.58A4.06,4.06,0,0,0,1111.19,699.18Z" style="fill:#fff"/><path d="M1085.71,716.15a3.8,3.8,0,1,1,2.31-4.8A3.77,3.77,0,0,1,1085.71,716.15Z" style="fill:#fff"/><path d="M1083.36,709.23a3.51,3.51,0,1,1-2.14,4.43,3.47,3.47,0,0,1,2.14-4.43m-.19-.54a4.08,4.08,0,1,0,5.12,2.57A4,4,0,0,0,1083.17,708.69Z" style="fill:#fff"/><path d="M1057.69,725.66a3.8,3.8,0,1,1,2.31-4.8A3.78,3.78,0,0,1,1057.69,725.66Z" style="fill:#fff"/><path d="M1055.34,718.73a3.52,3.52,0,1,1-2.14,4.44,3.48,3.48,0,0,1,2.14-4.44m-.19-.53a4.08,4.08,0,1,0,5.12,2.57A4,4,0,0,0,1055.15,718.2Z" style="fill:#fff"/><path d="M1029.67,735.17a3.8,3.8,0,1,1,2.31-4.8A3.78,3.78,0,0,1,1029.67,735.17Z" style="fill:#fff"/><path d="M1027.32,728.24a3.52,3.52,0,1,1-2.14,4.44,3.48,3.48,0,0,1,2.14-4.44m-.19-.53a4.08,4.08,0,1,0,5.12,2.57A4,4,0,0,0,1027.13,727.71Z" style="fill:#fff"/><path d="M1001.65,744.67a3.8,3.8,0,1,1,2.31-4.79A3.77,3.77,0,0,1,1001.65,744.67Z" style="fill:#fff"/><path d="M999.3,737.75a3.52,3.52,0,1,1-2.14,4.44,3.48,3.48,0,0,1,2.14-4.44m-.19-.54a4.08,4.08,0,1,0,5.12,2.58A4.06,4.06,0,0,0,999.11,737.21Z" style="fill:#fff"/><path d="M973.62,754.18a3.8,3.8,0,1,1,2.32-4.79A3.77,3.77,0,0,1,973.62,754.18Z" style="fill:#fff"/><path d="M971.28,747.26a3.51,3.51,0,1,1-2.14,4.43,3.48,3.48,0,0,1,2.14-4.43m-.19-.54a4.08,4.08,0,1,0,5.12,2.57A4.06,4.06,0,0,0,971.09,746.72Z" style="fill:#fff"/><path d="M945.61,763.69a3.8,3.8,0,1,1,2.31-4.8A3.77,3.77,0,0,1,945.61,763.69Z" style="fill:#fff"/><path d="M943.26,756.77a3.51,3.51,0,1,1-2.14,4.43,3.47,3.47,0,0,1,2.14-4.43m-.19-.54a4.08,4.08,0,1,0,5.12,2.57A4,4,0,0,0,943.07,756.23Z" style="fill:#fff"/><path d="M917.58,773.2a3.8,3.8,0,1,1,2.32-4.8A3.77,3.77,0,0,1,917.58,773.2Z" style="fill:#fff"/><path d="M915.24,766.27a3.52,3.52,0,1,1-2.14,4.44,3.48,3.48,0,0,1,2.14-4.44m-.19-.53a4.08,4.08,0,1,0,5.12,2.57A4,4,0,0,0,915.05,765.74Z" style="fill:#fff"/><path d="M989.48,710.76a3.17,3.17,0,1,1,1.93-4A3.14,3.14,0,0,1,989.48,710.76Z" style="fill:#fff"/><path d="M987.53,705a2.89,2.89,0,1,1-1.76,3.64,2.86,2.86,0,0,1,1.76-3.64m-.18-.54a3.45,3.45,0,1,0,4.33,2.18A3.43,3.43,0,0,0,987.35,704.49Z" style="fill:#fff"/><path d="M961.46,720.27a3.17,3.17,0,1,1,1.93-4A3.14,3.14,0,0,1,961.46,720.27Z" style="fill:#fff"/><path d="M959.51,714.54a2.88,2.88,0,1,1-1.76,3.64,2.85,2.85,0,0,1,1.76-3.64m-.18-.54a3.45,3.45,0,1,0,4.33,2.18A3.43,3.43,0,0,0,959.33,714Z" style="fill:#fff"/><path d="M933.44,729.78a3.17,3.17,0,1,1,1.93-4A3.15,3.15,0,0,1,933.44,729.78Z" style="fill:#fff"/><path d="M931.49,724a2.89,2.89,0,1,1-1.76,3.65,2.87,2.87,0,0,1,1.76-3.65m-.18-.53a3.45,3.45,0,1,0,4.33,2.18A3.42,3.42,0,0,0,931.31,723.51Z" style="fill:#fff"/><path d="M905.42,739.29a3.17,3.17,0,1,1,1.93-4A3.15,3.15,0,0,1,905.42,739.29Z" style="fill:#fff"/><path d="M903.47,733.55a2.89,2.89,0,1,1-1.76,3.65,2.87,2.87,0,0,1,1.76-3.65m-.18-.53a3.45,3.45,0,1,0,4.33,2.17A3.42,3.42,0,0,0,903.29,733Z" style="fill:#fff"/><path d="M893.25,705.38a2.55,2.55,0,1,1,1.55-3.21A2.53,2.53,0,0,1,893.25,705.38Z" style="fill:#fff"/><path d="M891.7,700.83a2.26,2.26,0,1,1-1.37,2.85,2.25,2.25,0,0,1,1.37-2.85m-.18-.54a2.83,2.83,0,1,0,3.54,1.79A2.81,2.81,0,0,0,891.52,700.29Z" style="fill:#fff"/><path d="M1174.41,742.73a4.42,4.42,0,1,1,2.7-5.59A4.4,4.4,0,0,1,1174.41,742.73Z" style="fill:#fff"/><path d="M1171.66,734.61a4.14,4.14,0,1,1-2.52,5.23,4.11,4.11,0,0,1,2.52-5.23m-.18-.53a4.7,4.7,0,1,0,5.9,3A4.67,4.67,0,0,0,1171.48,734.08Z" style="fill:#fff"/><path d="M1146.39,752.23a4.42,4.42,0,1,1,2.7-5.58A4.39,4.39,0,0,1,1146.39,752.23Z" style="fill:#fff"/><path d="M1143.64,744.12a4.14,4.14,0,1,1-2.52,5.23,4.11,4.11,0,0,1,2.52-5.23m-.18-.53a4.7,4.7,0,1,0,5.9,3A4.67,4.67,0,0,0,1143.46,743.59Z" style="fill:#fff"/><path d="M1118.37,761.74a4.42,4.42,0,1,1,2.7-5.59A4.39,4.39,0,0,1,1118.37,761.74Z" style="fill:#fff"/><path d="M1115.62,753.63a4.14,4.14,0,1,1-2.52,5.23,4.1,4.1,0,0,1,2.52-5.23m-.18-.54a4.71,4.71,0,1,0,5.9,3A4.68,4.68,0,0,0,1115.44,753.09Z" style="fill:#fff"/><path d="M1090.35,771.25a4.42,4.42,0,1,1,2.7-5.59A4.39,4.39,0,0,1,1090.35,771.25Z" style="fill:#fff"/><path d="M1087.6,763.14a4.14,4.14,0,1,1-2.52,5.23,4.12,4.12,0,0,1,2.52-5.23m-.18-.54a4.71,4.71,0,1,0,5.9,3A4.68,4.68,0,0,0,1087.42,762.6Z" style="fill:#fff"/><path d="M1162.24,708.82a3.8,3.8,0,1,1,2.32-4.8A3.77,3.77,0,0,1,1162.24,708.82Z" style="fill:#fff"/><path d="M1159.89,701.89a3.52,3.52,0,1,1-2.14,4.44,3.49,3.49,0,0,1,2.14-4.44m-.18-.53a4.08,4.08,0,1,0,5.12,2.57A4,4,0,0,0,1159.71,701.36Z" style="fill:#fff"/><path d="M1134.22,718.32a3.8,3.8,0,1,1,2.32-4.79A3.76,3.76,0,0,1,1134.22,718.32Z" style="fill:#fff"/><path d="M1131.87,711.4a3.52,3.52,0,1,1-2.14,4.44,3.48,3.48,0,0,1,2.14-4.44m-.18-.54a4.08,4.08,0,1,0,5.12,2.58A4.06,4.06,0,0,0,1131.69,710.86Z" style="fill:#fff"/><path d="M1106.2,727.83a3.8,3.8,0,1,1,2.32-4.79A3.76,3.76,0,0,1,1106.2,727.83Z" style="fill:#fff"/><path d="M1103.85,720.91a3.51,3.51,0,1,1-2.14,4.43,3.48,3.48,0,0,1,2.14-4.43m-.18-.54a4.08,4.08,0,1,0,5.12,2.57A4.06,4.06,0,0,0,1103.67,720.37Z" style="fill:#fff"/><path d="M1078.18,737.34a3.8,3.8,0,1,1,2.32-4.8A3.76,3.76,0,0,1,1078.18,737.34Z" style="fill:#fff"/><path d="M1075.83,730.42a3.51,3.51,0,1,1-2.14,4.43,3.48,3.48,0,0,1,2.14-4.43m-.18-.54a4.08,4.08,0,1,0,5.12,2.57A4,4,0,0,0,1075.65,729.88Z" style="fill:#fff"/><path d="M1050.16,746.85a3.8,3.8,0,1,1,2.32-4.8A3.77,3.77,0,0,1,1050.16,746.85Z" style="fill:#fff"/><path d="M1047.81,739.92a3.52,3.52,0,1,1-2.14,4.44,3.49,3.49,0,0,1,2.14-4.44m-.18-.53a4.08,4.08,0,1,0,5.12,2.57A4,4,0,0,0,1047.63,739.39Z" style="fill:#fff"/><path d="M1022.14,756.35a3.8,3.8,0,1,1,2.32-4.79A3.75,3.75,0,0,1,1022.14,756.35Z" style="fill:#fff"/><path d="M1019.79,749.43a3.52,3.52,0,1,1-2.14,4.44,3.48,3.48,0,0,1,2.14-4.44m-.18-.53a4.08,4.08,0,1,0,5.12,2.57A4,4,0,0,0,1019.61,748.9Z" style="fill:#fff"/><path d="M994.12,765.86a3.8,3.8,0,1,1,2.32-4.79A3.76,3.76,0,0,1,994.12,765.86Z" style="fill:#fff"/><path d="M991.77,758.94a3.52,3.52,0,1,1-2.14,4.44,3.48,3.48,0,0,1,2.14-4.44m-.18-.54a4.08,4.08,0,1,0,5.12,2.58A4.06,4.06,0,0,0,991.59,758.4Z" style="fill:#fff"/><path d="M966.1,775.37a3.8,3.8,0,1,1,2.32-4.79A3.76,3.76,0,0,1,966.1,775.37Z" style="fill:#fff"/><path d="M963.75,768.45a3.51,3.51,0,1,1-2.14,4.43,3.48,3.48,0,0,1,2.14-4.43m-.18-.54a4.08,4.08,0,1,0,5.12,2.57A4.05,4.05,0,0,0,963.57,767.91Z" style="fill:#fff"/><path d="M1038,712.94a3.17,3.17,0,1,1,1.94-4A3.16,3.16,0,0,1,1038,712.94Z" style="fill:#fff"/><path d="M1036.05,707.2a2.89,2.89,0,1,1-1.76,3.65,2.87,2.87,0,0,1,1.76-3.65m-.18-.53a3.45,3.45,0,1,0,4.32,2.17A3.41,3.41,0,0,0,1035.87,706.67Z" style="fill:#fff"/><path d="M1010,722.44a3.17,3.17,0,1,1,1.94-4A3.14,3.14,0,0,1,1010,722.44Z" style="fill:#fff"/><path d="M1008,716.71a2.89,2.89,0,1,1-1.76,3.64,2.87,2.87,0,0,1,1.76-3.64m-.18-.54a3.45,3.45,0,1,0,4.32,2.18A3.43,3.43,0,0,0,1007.85,716.17Z" style="fill:#fff"/><path d="M982,732a3.17,3.17,0,1,1,1.94-4A3.15,3.15,0,0,1,982,732Z" style="fill:#fff"/><path d="M980,726.22a2.88,2.88,0,1,1-1.76,3.64,2.86,2.86,0,0,1,1.76-3.64m-.18-.54a3.45,3.45,0,1,0,4.32,2.18A3.42,3.42,0,0,0,979.83,725.68Z" style="fill:#fff"/><path d="M953.93,741.46a3.17,3.17,0,1,1,1.94-4A3.15,3.15,0,0,1,953.93,741.46Z" style="fill:#fff"/><path d="M952,735.73a2.88,2.88,0,1,1-1.76,3.64,2.85,2.85,0,0,1,1.76-3.64m-.18-.54a3.45,3.45,0,1,0,4.32,2.18A3.42,3.42,0,0,0,951.81,735.19Z" style="fill:#fff"/><path d="M925.91,751a3.17,3.17,0,1,1,1.94-4A3.16,3.16,0,0,1,925.91,751Z" style="fill:#fff"/><path d="M924,745.23a2.89,2.89,0,1,1-1.76,3.65,2.87,2.87,0,0,1,1.76-3.65m-.18-.53a3.45,3.45,0,1,0,4.32,2.18A3.41,3.41,0,0,0,923.79,744.7Z" style="fill:#fff"/><path d="M897.89,760.48a3.17,3.17,0,1,1,1.94-4A3.16,3.16,0,0,1,897.89,760.48Z" style="fill:#fff"/><path d="M896,754.74a2.89,2.89,0,1,1-1.76,3.65,2.87,2.87,0,0,1,1.76-3.65m-.18-.53a3.45,3.45,0,1,0,4.32,2.17A3.41,3.41,0,0,0,895.77,754.21Z" style="fill:#fff"/><path d="M941.76,707.55a2.54,2.54,0,1,1,1.55-3.21A2.53,2.53,0,0,1,941.76,707.55Z" style="fill:#fff"/><path d="M940.22,703a2.26,2.26,0,1,1-1.37,2.85,2.25,2.25,0,0,1,1.37-2.85m-.18-.53a2.83,2.83,0,1,0,3.54,1.78A2.81,2.81,0,0,0,940,702.47Z" style="fill:#fff"/><path d="M913.74,717.06a2.54,2.54,0,1,1,1.55-3.21A2.53,2.53,0,0,1,913.74,717.06Z" style="fill:#fff"/><path d="M912.2,712.51a2.26,2.26,0,1,1-1.37,2.85,2.25,2.25,0,0,1,1.37-2.85M912,712a2.82,2.82,0,1,0,3.54,1.78A2.8,2.8,0,0,0,912,712Z" style="fill:#fff"/></g><path d="M1384.62,649.34a18.45,18.45,0,0,1,5.72,5.61c87.36,132.34,65.72,204.89,65.72,204.89-16.73,56.06-61.85,84.85-110.43,115.83-29.42,18.77-108.35,69.13-141.89,43.31-37.09-28.55,21.07-119.62-23.62-165.48-33.25-34.1-85.75-4.59-109.35-37.56-23.82-33.29-6-113.28,47.31-131.76,41.25-14.3,88.7,13.43,107.88,44.64,16.31,26.53,8,48.75,24.85,57.77,19.58,10.46,57.52-5.14,69.7-31.14,13.7-29.24-14.84-51,.29-78.82C1333.32,653.62,1368.66,639.5,1384.62,649.34Z" style="fill:#ffc312"/><path d="M1492.36,759.15c-9.35,4.05-16.39,7.48-24.14,9.25-5.23,1.2-9.64,4.6-14.13,7.35-7.63,4.68-15.84,6.12-24.45,6.29a115.29,115.29,0,0,0-11.62.49,53.38,53.38,0,0,1-25-2.56c-8.64-3.18-17.58-4.6-26.51-6.39-5.83-1.16-11.69-1.74-17.53-2.55a29.61,29.61,0,0,1-6.22-1.46c-4.21-1.56-8.6,1.78-8.64,6.32-.11,10.94-.65,21.88.18,32.81.12,1.48,0,3-2.15,3-1.7,0-2.86-.61-2.85-2.5.07-9.78-1.49-19.53-.48-29.35.29-2.83.05-5.77-1.93-8.29-1.14-1.43-2.23-1.7-3.75-1-1.33.59-2.65,1.22-4,1.82-11.85,5.35-22.79,12.3-33.77,19.16-3.63,2.27-7.7,3.15-11.69,4.28-5.22,1.48-10.52,2.68-15.77,4a37.11,37.11,0,0,1-12.72.81c-9.93-.89-20-.71-29.76-3-7.54-1.8-15.16-3.31-22.6-5.54-3.2-1-5.94-2.83-9-4.09-6-2.49-12.38-3.94-18.59-5.84-1.93-.59-3.3-1.49-3.75-3.57s.86-3.2,2.18-4.39c3.67-3.3,8.56-3.47,12.9-5,8.42-3,17.16-4.81,25.77-7.09,6.39-1.69,12-5,17.53-8.37,4.42-2.66,9.34-3.73,14.13-5.17,2.29-.69,4.62-1.41,7-2,7.44-1.71,14.88-1,22.27,0,4.9.68,9.92.38,14.71,1.75,5.4,1.55,10.76,3.24,16.1,5,3,1,6.22,1.24,9.28,2.27s5.2-1.68,4.48-4.84c-1.43-6.32-6.66-8.89-11.62-11.34s-9.63-5.07-15-6.38a1.37,1.37,0,0,1-.53-.25c-6.68-5.77-15.44-8-22.52-13.17s-14.72-10-21.83-15.43a71.74,71.74,0,0,1-17.29-19.08c-5.42-8.6-10.73-17.34-14.52-26.81a137.77,137.77,0,0,1-8.29-32.31c-.59-4.22-.8-8.5-1.27-12.74-.25-2.22.7-2.49,2.55-2s3.32,2,5.12,2.72c8.27,3.21,15.77,8,23.11,12.71,12.09,7.81,24.42,15.47,34,26.64,4.66,5.44,9.89,10.39,14,16.29a40.2,40.2,0,0,1,4.29,7.25c2.67,6.36,5.44,12.76,9.23,18.44,7.33,11,12.39,23.25,19.49,34.35a12.93,12.93,0,0,0,2.64,3.07c3.6,3,7.87,1.93,9.68-2.4a17.93,17.93,0,0,0-.4-15c-2.48-5.42-3.67-11.21-5.33-16.88-2.11-7.25-4.83-14.32-7.27-21.47a125.87,125.87,0,0,1-6.86-33.77,242.46,242.46,0,0,1-.27-28.78,97.07,97.07,0,0,1,7.2-32.18c2-4.71,3.58-9.61,5.39-14.42,4.24-11.29,9.71-22,15.24-32.66.3-.58.43-1.43,1.28-1.4s1,.86,1.12,1.49c2.11,9.33,6.18,17.91,9.89,26.66a209.13,209.13,0,0,1,10.59,33.49c3,12.54,5.28,25.22,5.44,38.12.09,7.6-1.15,15.15-2.6,22.68-1.34,6.95-3.44,13.72-4.48,20.72a65.18,65.18,0,0,1-3.58,14.68c-1.52,3.84-1.43,8-2.11,12-1.26,7.35-3.52,14.53-3.77,22-.08,2.15-.35,4.32,2.13,5.52s6.06.91,8-.81c7.87-7.13,14.07-15.36,17.92-25.41,4.82-12.56,9.35-25.29,17.18-36.46,6-8.5,11.7-17.16,20.51-23.15,3.21-2.19,5.16-5.75,8.37-8,7.23-5.16,14.8-9.63,23.64-11.3,5.73-1.08,10.65-4.11,16-6.13,8.41-3.19,17.21-4.65,25.79-7,.6-.17,1.35-.54,1.91.09a1.06,1.06,0,0,1-.11,1.35c-3.65,5.07-3.83,11.62-7.09,16.81-4.62,7.36-7.48,15.52-11.2,23.29-7.09,14.76-16.63,27.67-29.43,38.16-4.55,3.73-8.6,8.1-13.35,11.64-9.12,6.8-19.15,12-29.27,17.12-8.88,4.5-17.61,9.48-25.38,15.78a24.68,24.68,0,0,0-6.89,9.28c-1.74,4-.26,5.8,3.81,7.21,7.75,2.69,14.76.26,21.68-2.53s13.44-6.81,19.91-10.77a79.57,79.57,0,0,1,26.26-9.84c13.9-2.75,27.64-1.11,41.37.54a83.51,83.51,0,0,1,27.56,8.58c4,2,8.35,3.1,12.56,4.52,2.89,1,3,2,.59,3.86C1504.66,753,1497.8,757.19,1492.36,759.15Z" style="fill:#1b1464"/><path d="M1172.47,171.76c-2.71-44.31,14.59-78.06,25.58-91,11.46-13.45,22.1-7.4,43.71-26.87,9-8.15,23.12-20.83,20.26-31-4.39-15.71-43.6-6-56.2-26-11.45-18.15,3.24-54.24,27.27-71.74,32.33-23.54,82.56-14.14,110.2,14.51,23.35,24.21,34.37,66.09,18.9,86.7-12.81,17.08-36,9.21-48.5,29.91-10,16.57.17,29.44-11.33,42.09-9.47,10.42-19.25,4.87-40.6,14-7.69,3.29-38.17,16.3-42,37.82-3.85,21.9,23.46,32.84,19.49,59-1.89,12.49-10.42,25.34-18.39,25.38-10.2.05-29.65-15.93-36.84-25.45C1175.42,197.75,1173.29,185.1,1172.47,171.76Z" style="fill:#fff"/><path d="M1383.78-63.5c40.15,3.25,63.68,39.63,69.44,48.54,39.29,60.75-4,110.27,34.39,163.16,23.72,32.7,47.69,24,64.05,56.63,19.06,38,7,90.93-18.88,122.7-50.81,62.25-174.72,67.57-238.67,0-39-41.23-58.28-112.32-34.38-157.76,14.89-28.31,41.07-36.28,47.19-72.81,3.07-18.32-2.63-21.57-2.7-60.68,0-34.54-.08-51.81,8.77-66.07C1327.07-52.5,1356.78-65.69,1383.78-63.5Z" style="fill:#ff4757"/><path d="M1483.38,29.72c-9.09,4.71-18.88,6.66-28.25,9.8-13.13,4.41-26.81,6-40.34,8.17-8.5,1.4-17.31,1.25-26,1.29-11.87.06-23.73-.22-35.59-1.11-14.45-1.09-28.78-2.91-43.14-4.93-15.39-2.18-30.34-6-45.4-9.41-8.46-1.93-16.74-4.6-24.33-9-.83-.48-2-.73-2.11-1.89-.09-1.56,1.46-1.53,2.4-1.84,6.34-2.1,12.89-3.43,19.33-5.14,10.88-2.88,21.77-5.86,33-7.5a127.71,127.71,0,0,1,16.69-1c15.76-.24,31.38-2.86,47.13-2.89,18.07,0,36.2-2,54.18-.06,15.5,1.69,31.14,2.42,46.44,5.84,6.15,1.37,12.47,1.92,18.58,3.59a57.13,57.13,0,0,1,11.25,3.81c3,1.55,5.69,1.25,7.86-1.65,9.64-12.9,22.57-23.06,31-37a15.14,15.14,0,0,1,1.67-2c1.92-2.17,4.1-2.73,6.55-.91s2.78,3.86,1.56,6.55c-2.93,6.43-7.52,11.66-12.2,16.76-8.87,9.68-17.65,19.42-26.08,29.48a2.55,2.55,0,0,0-.16,3.65c1.23,1.55,2.4,3.17,3.73,4.63,10.06,11.11,17.6,23.93,25.16,36.75,3.71,6.28,8.07,12.11,10.94,19,3.76,9,5.66,18.47,9.08,27.48,4.12,10.87,5.9,22.24,8,33.56,1,5.59,1.18,11.29,2.24,16.9.52,2.69,1.32,5.27,2,7.91,3.37,14.05,3.13,28.21,1.65,42.45-.68,6.65-1.69,13.29-1.2,20,.06.81.35,1.89-.63,2.33s-1.49-.58-2-1.25C1550.53,234,1544.5,226,1539,217.6c-6-9.09-11.33-18.58-17.14-27.78-3.82-6.06-8.32-11.7-10.76-18.58-5-14.12-10.58-28-15.36-42.23-4.86-14.48-7.56-29.46-11-44.26-2-8.54-1.46-17.26-.3-25.87.61-4.54.15-9.19,1.47-13.65.17-.56.24-1.4-.4-1.66-1-.43-1.51.56-2.08,1.17-6.65,7.16-13.4,14.24-19.93,21.52-7.53,8.38-14.79,17-22.32,25.38-1.92,2.14-2.17,3.46.23,5.4,5,4.08,8.77,9.41,13.24,14,11,11.41,19,25.09,27.56,38.24,9.57,14.67,14.58,31.3,19.06,48.15a201.6,201.6,0,0,1,6.56,40.61c.52,9.15,1.37,18.22,2.31,27.32a93.73,93.73,0,0,0,2.32,15,65.88,65.88,0,0,1,1.71,23.6c-.61,6.57,1.1,13.08.47,19.65-.08.85.3,1.86-.71,2.29-1.24.53-1.76-.57-2.33-1.33-6.27-8.47-12.48-17-18.79-25.42-8.73-11.7-14.84-24.84-20.47-38.15-5.52-13-12-25.6-18.65-38-5.49-10.21-7.91-21.33-11.67-32-2.79-7.92-3.6-16.4-5.26-24.63-1.07-5.32-2.56-10.57-3.36-15.94-1.7-11.39-3.27-22.73-1.35-34.33.69-4.21-.11-8.73.66-13.78-3,1.8-4.43,4-6,6-10.4,13.7-20.7,27.49-31.19,41.13-1.9,2.47-1.54,4.28,0,6.64q12.32,19.47,24.43,39.06c6.17,10,9.63,21.18,13.16,32.28q5.58,17.5,10.61,35.19c1.58,5.59,3.19,11.32,3.59,17.07,1.07,15.21,4.85,30.06,5.36,45.36.37,11,3.21,21.76,4.67,32.67,1.2,8.94.22,17.8-1.17,26.62-.39,2.49-2.93,2.71-5.51.25-3-2.91-5.84-6.08-8.59-9.27a31,31,0,0,0-4.8-4.64c-9-6.68-15.8-15.15-21.63-24.7s-8.81-19.79-11.77-30.3a196.21,196.21,0,0,0-7.09-20.31c-3-7.41-5.94-14.86-8.72-22.37-5.64-15.26-7.32-31.22-10.14-47-1.7-9.5,0-19.26,1.53-28.82a213.38,213.38,0,0,1,5.83-27.61,4.42,4.42,0,0,0-.34-4.28c-4,5.25-8,10.25-11.75,15.43a82.77,82.77,0,0,1-5.09,6.86,11.75,11.75,0,0,0-3.26,8c-.09,7-3.28,13.16-5.3,19.65-4,12.68-11.15,23.7-17.56,35.16-7,12.6-16.31,23.67-23.76,35.94-10.73,17.67-24.24,32.85-39.63,46.52-10.37,9.21-20.44,18.77-30.82,28-9.47,8.38-19.21,16.42-30.94,21.65-2.11.94-3.89,2.61-5.82,4-1,.72-2.09,1.51-3.4.81-1.56-.83-1.17-2.27-.95-3.62A84.84,84.84,0,0,1,1215,358c8.29-15.93,16.71-31.8,25.11-47.68,4.83-9.13,11.16-17.24,17.17-25.6,10.16-14.13,22-26.79,33.71-39.59,6-6.61,13.31-11.86,20.27-17.41,9.61-7.64,18.48-16.1,27.72-24.14,15.32-13.34,26.47-30,38.35-46.14a9.39,9.39,0,0,0,.7-1.85c-4.39,2.41-8.37,4.4-11.69,7.32-7.8,6.86-17,11-26.63,14.49a295.61,295.61,0,0,1-30.69,8.91,316.06,316.06,0,0,1-40.63,6.7c-17.92,2-35.87,1.69-53.81,1.56a147.51,147.51,0,0,1-20-1.66c-10.67-1.51-21.11-4.12-31.73-5.83-3.73-.6-7.43-.14-11.14-.14-1.69,0-3.39.12-5.26-1.24,3.18-1.76,5.92-3.67,8.79-5.16,10.88-5.63,21.12-12.69,32.77-16.61,9.36-3.15,18.71-6.44,28.35-8.82s19.37-5.18,29-7.86a215.37,215.37,0,0,1,33.44-6.93c11.69-1.32,23.26-3.69,35-4.11,14.7-.51,29.39-1.32,44.12-1.51,10.09-.13,20,1.4,30,2.17,2.46.19,4.7-.19,6.21-2.48,8.2-12.43,17.87-23.74,26.9-35.54A14.12,14.12,0,0,0,1422,97c-10,5.4-20.44,7.07-30,11.15-5.27,2.23-10.84,2.77-16.33,3.26-13.57,1.22-27.11,2.87-40.69,3.81-10.35.72-20.78,0-31.18-.36a425.82,425.82,0,0,1-78.09-9.51c-11.51-2.51-22.86-5.62-34.28-8.51-1-.26-2.59-.14-2.68-1.48s1.5-1.49,2.48-1.82c18-6.18,35.68-13.48,54.28-18A180.42,180.42,0,0,1,1266,72.33c20.34-2.49,40.8-2.44,61.23-2.57,13.73-.09,27.55-.17,41.13,2,19.94,3.14,40.29,3.45,60,8.06,6.9,1.62,10.38-.31,14.45-5.28,11.13-13.63,23.26-26.4,35.34-39.19C1479.84,33.45,1481.61,31.59,1483.38,29.72Z" style="fill:#1b1464"/></svg>